<svg id="Capa_1" data-name="Capa 1" xmlns="http://www.w3.org/2000/svg" viewBox="0 0 181.86 194.77"><defs><style>.cls-1{fill:#333;}.cls-2{fill:#999;}.cls-3{fill:#fff;}.cls-4{fill:#676766;}.cls-5{fill:#991914;}.cls-6{fill:#1d1d1b;}</style></defs><rect y="11.72" width="37.92" height="162.14"/><rect class="cls-1" y="11.72" width="37.92" height="4.69"/><rect class="cls-1" y="115.1" width="4.2" height="36.56"/><rect class="cls-1" x="32.64" y="115.1" width="5.28" height="36.56"/><rect class="cls-1" y="38.9" width="4.2" height="36.56"/><rect class="cls-1" x="32.64" y="38.9" width="5.28" height="36.56"/><rect class="cls-2" x="12" y="16.4" width="13.68" height="2.42"/><path class="cls-2" d="M155.63,301.14a1.05,1.05,0,0,1-.18-2.09l17.86-3-14.58-2.74a1.05,1.05,0,0,1-.86-1,1.07,1.07,0,0,1,.87-1l10.38-1.85-7.23-1.62a1,1,0,0,1-.83-1,1.06,1.06,0,0,1,.84-1l2.8-.6a1.1,1.1,0,0,1,0-.18,1,1,0,0,1,1-1.05h4.9a1,1,0,0,1,1,.94,1.05,1.05,0,0,1-.82,1.14l-3.8.8,7.64,1.72a1.05,1.05,0,0,1-.05,2.06l-9.86,1.76,14.76,2.77a1,1,0,0,1,.86,1,1,1,0,0,1-.88,1l-23.72,3.93Z" transform="translate(-148.4 -130.34)"/><rect class="cls-1" y="168.58" width="37.92" height="5.28"/><rect class="cls-3" x="14.36" y="88.18" width="9.2" height="9.2" rx="2.59"/><rect class="cls-4" x="166.11" y="180.73" width="2.25" height="13.23" transform="translate(206.19 -110.23) rotate(90)"/><rect class="cls-4" x="17.71" y="50.57" width="2.25" height="13.23"/><rect class="cls-4" x="166.11" y="257.11" width="2.25" height="13.23" transform="translate(282.56 -33.85) rotate(90)"/><rect x="47.94" y="11.72" width="37.92" height="162.14"/><rect class="cls-1" x="47.94" y="11.72" width="37.92" height="4.69"/><rect class="cls-1" x="47.94" y="115.1" width="4.2" height="36.56"/><rect class="cls-1" x="80.58" y="115.1" width="5.28" height="36.56"/><rect class="cls-1" x="47.94" y="38.9" width="4.2" height="36.56"/><rect class="cls-1" x="80.58" y="38.9" width="5.28" height="36.56"/><rect class="cls-2" x="59.94" y="16.4" width="13.68" height="2.42"/><path class="cls-2" d="M203.57,301.14a1.05,1.05,0,0,1-.17-2.09l17.85-3-14.57-2.74a1.05,1.05,0,0,1,0-2.07l10.38-1.85-7.23-1.62a1,1,0,0,1,0-2.05l2.8-.6a1.09,1.09,0,0,1,0-.18,1,1,0,0,1,1.05-1.05h4.89a1.05,1.05,0,0,1,.22,2.08l-3.8.8,7.64,1.72a1.05,1.05,0,0,1,0,2.06l-9.87,1.76,14.77,2.77a1.05,1.05,0,0,1,.86,1,1.07,1.07,0,0,1-.88,1l-23.73,3.93Z" transform="translate(-148.4 -130.34)"/><rect class="cls-1" x="47.94" y="168.58" width="37.92" height="5.28"/><rect class="cls-3" x="62.3" y="88.18" width="9.2" height="9.2" rx="2.59"/><rect class="cls-4" x="214.05" y="180.73" width="2.25" height="13.23" transform="translate(254.13 -158.17) rotate(90)"/><rect class="cls-4" x="65.66" y="50.57" width="2.25" height="13.23"/><rect class="cls-4" x="214.05" y="257.11" width="2.25" height="13.23" transform="translate(330.51 -81.8) rotate(90)"/><rect x="95.94" y="11.72" width="37.92" height="162.14"/><rect class="cls-1" x="95.94" y="11.72" width="37.92" height="4.69"/><rect class="cls-1" x="95.94" y="115.1" width="4.2" height="36.56"/><rect class="cls-1" x="128.58" y="115.1" width="5.28" height="36.56"/><rect class="cls-1" x="95.94" y="38.9" width="4.2" height="36.56"/><rect class="cls-1" x="128.58" y="38.9" width="5.28" height="36.56"/><rect class="cls-2" x="107.94" y="16.4" width="13.68" height="2.42"/><path class="cls-2" d="M251.57,301.14a1.05,1.05,0,0,1-.17-2.09l17.85-3-14.57-2.74a1.05,1.05,0,0,1,0-2.07l10.38-1.85-7.23-1.62a1,1,0,0,1,0-2.05l2.8-.6a1.09,1.09,0,0,1,0-.18,1,1,0,0,1,1.05-1.05h4.89a1.05,1.05,0,0,1,.22,2.08l-3.8.8,7.64,1.72a1.05,1.05,0,0,1,0,2.06l-9.87,1.76,14.77,2.77a1.05,1.05,0,0,1,.86,1,1.07,1.07,0,0,1-.88,1l-23.73,3.93Z" transform="translate(-148.4 -130.34)"/><rect class="cls-1" x="95.94" y="168.58" width="37.92" height="5.28"/><rect class="cls-3" x="110.3" y="88.18" width="9.2" height="9.2" rx="2.59"/><rect class="cls-4" x="262.05" y="180.73" width="2.25" height="13.23" transform="translate(302.13 -206.17) rotate(90)"/><rect class="cls-4" x="113.66" y="50.57" width="2.25" height="13.23"/><rect class="cls-4" x="262.05" y="257.11" width="2.25" height="13.23" transform="translate(378.51 -129.8) rotate(90)"/><rect x="143.94" y="11.72" width="37.92" height="162.14"/><rect class="cls-1" x="143.94" y="11.72" width="37.92" height="4.69"/><rect class="cls-1" x="143.94" y="115.1" width="4.2" height="36.56"/><rect class="cls-1" x="176.58" y="115.1" width="5.28" height="36.56"/><rect class="cls-1" x="143.94" y="38.9" width="4.2" height="36.56"/><rect class="cls-1" x="176.58" y="38.9" width="5.28" height="36.56"/><rect class="cls-2" x="155.94" y="16.4" width="13.68" height="2.42"/><path class="cls-2" d="M299.57,301.14a1.05,1.05,0,0,1-.17-2.09l17.85-3-14.57-2.74a1.05,1.05,0,0,1,0-2.07l10.38-1.85-7.23-1.62a1,1,0,0,1,0-2.05l2.8-.6a1.09,1.09,0,0,1,0-.18,1,1,0,0,1,1.05-1.05h4.89a1.05,1.05,0,0,1,.22,2.08l-3.8.8,7.64,1.72a1.05,1.05,0,0,1,0,2.06l-9.87,1.76,14.77,2.77a1.05,1.05,0,0,1,.86,1,1.07,1.07,0,0,1-.88,1l-23.73,3.93Z" transform="translate(-148.4 -130.34)"/><rect class="cls-1" x="143.94" y="168.58" width="37.92" height="5.28"/><rect class="cls-3" x="158.3" y="88.18" width="9.2" height="9.2" rx="2.59"/><rect class="cls-4" x="310.05" y="180.73" width="2.25" height="13.23" transform="translate(350.13 -254.17) rotate(90)"/><rect class="cls-4" x="161.66" y="50.57" width="2.25" height="13.23"/><rect class="cls-4" x="310.05" y="257.11" width="2.25" height="13.23" transform="translate(426.51 -177.8) rotate(90)"/><rect class="cls-4" x="2.98" y="173.86" width="3.2" height="11.72"/><rect class="cls-5" x="174.35" width="3.2" height="11.72"/><rect class="cls-4" x="50.85" y="173.86" width="3" height="11.72"/><rect class="cls-4" x="99.6" y="173.86" width="3" height="11.72"/><rect class="cls-4" x="147.02" y="173.86" width="3" height="11.72"/><path class="cls-5" d="M195.44,325.12a5.36,5.36,0,0,1-4.46-2.5,11.7,11.7,0,0,1-1.7-6.7V142.06a5.44,5.44,0,0,0-1.89-4.41,6.89,6.89,0,0,0-4.43-1.47c-3.23,0-6.69,1.84-6.69,5.88h-3c0-5.83,4.87-8.88,9.69-8.88a9.93,9.93,0,0,1,6.35,2.16,8.46,8.46,0,0,1,3,6.72V315.92a8.77,8.77,0,0,0,1.17,5,2.44,2.44,0,0,0,2,1.2c1.83,0,3.81-2.37,3.81-6.2h3C202.25,321.89,198.74,325.12,195.44,325.12Z" transform="translate(-148.4 -130.34)"/><path class="cls-5" d="M244.18,325.12a5.38,5.38,0,0,1-4.46-2.5,11.78,11.78,0,0,1-1.7-6.7V142.06a5.44,5.44,0,0,0-1.89-4.41,6.89,6.89,0,0,0-4.43-1.47c-3.22,0-6.69,1.84-6.69,5.88h-3c0-5.83,4.87-8.88,9.69-8.88a9.91,9.91,0,0,1,6.35,2.16,8.43,8.43,0,0,1,3,6.72V315.92a8.67,8.67,0,0,0,1.18,5,2.42,2.42,0,0,0,2,1.2c1.83,0,3.81-2.37,3.81-6.2h3C251,321.89,247.48,325.12,244.18,325.12Z" transform="translate(-148.4 -130.34)"/><path class="cls-5" d="M291.61,325.12a5.38,5.38,0,0,1-4.46-2.5,11.78,11.78,0,0,1-1.7-6.7V142.06a5.44,5.44,0,0,0-1.89-4.41,6.89,6.89,0,0,0-4.43-1.47c-3.22,0-6.69,1.84-6.69,5.88h-3c0-5.83,4.87-8.88,9.69-8.88a9.91,9.91,0,0,1,6.35,2.16,8.43,8.43,0,0,1,3,6.72V315.92a8.67,8.67,0,0,0,1.18,5,2.42,2.42,0,0,0,2,1.2c1.83,0,3.81-2.37,3.81-6.2h3C298.42,321.89,294.91,325.12,291.61,325.12Z" transform="translate(-148.4 -130.34)"/><path class="cls-6" d="M158.93,312a2.26,2.26,0,0,1-1.86-.73,3.7,3.7,0,0,1-.59-2.31,3.75,3.75,0,0,1,.66-2.37,2.23,2.23,0,0,1,1.86-.84,3.38,3.38,0,0,1,1.41.28l-.25,1a3.27,3.27,0,0,0-1-.19,1.05,1.05,0,0,0-1,.52,3.39,3.39,0,0,0-.3,1.64,5.12,5.12,0,0,0,.1,1.17,1,1,0,0,0,.36.61,1.12,1.12,0,0,0,.68.18,2.67,2.67,0,0,0,.48,0,1.91,1.91,0,0,0,.47-.12l-.57.71v-2.37l.73.39h-1.46v-1h1.91v3.23a6.31,6.31,0,0,1-.83.21A4.43,4.43,0,0,1,158.93,312Z" transform="translate(-148.4 -130.34)"/><path class="cls-6" d="M161.5,311.89v-6h1.43l1.89,4.63-.29.3v-4.93h1.18v6h-1.43l-1.89-4.63.29-.31v4.94Z" transform="translate(-148.4 -130.34)"/><path class="cls-6" d="M166.76,311.89v-6h1.77a2.18,2.18,0,0,1,1.83.75,3.62,3.62,0,0,1,.59,2.25,3.58,3.58,0,0,1-.59,2.23,2.2,2.2,0,0,1-1.83.75Zm1.34-.41-.7-.65h1.09a.86.86,0,0,0,.82-.44,4.78,4.78,0,0,0,0-3,.86.86,0,0,0-.82-.44H167.4l.7-.65Z" transform="translate(-148.4 -130.34)"/><path class="cls-6" d="M308,140.3l-1.43-6.16h1.46l1.08,6-.28,0,1.07-6h1.4l-1.42,6.16Z" transform="translate(-148.4 -130.34)"/><path class="cls-6" d="M313.12,139v-1.24H312v-1h1.15V135.5h1v1.24h1.15v1h-1.15V139Z" transform="translate(-148.4 -130.34)"/><path class="cls-6" d="M317.56,139v-1.24h-1.15v-1h1.15V135.5h1v1.24h1.15v1h-1.15V139Z" transform="translate(-148.4 -130.34)"/></svg>