<svg id="Capa_1" data-name="Capa 1" xmlns="http://www.w3.org/2000/svg" viewBox="0 0 94.2 158.17"><defs><style>.cls-1{fill:#fff;}.cls-2{fill:#999;}.cls-3{fill:#333;}</style></defs><rect width="94.2" height="158.17" rx="5.05"/><circle class="cls-1" cx="5.57" cy="5.27" r="4.22"/><circle class="cls-1" cx="88.63" cy="5.27" r="4.22"/><circle class="cls-1" cx="5.57" cy="151.91" r="4.22"/><circle class="cls-1" cx="88.63" cy="151.91" r="4.22"/><circle class="cls-2" cx="5.02" cy="141.22" r="3.03"/><circle class="cls-2" cx="5.02" cy="134.23" r="3.03"/><circle class="cls-2" cx="5.02" cy="127.24" r="3.03"/><circle class="cls-2" cx="5.02" cy="120.25" r="3.03"/><circle class="cls-2" cx="5.02" cy="113.26" r="3.03"/><circle class="cls-2" cx="5.02" cy="106.27" r="3.03"/><circle class="cls-2" cx="5.02" cy="99.28" r="3.03"/><circle class="cls-2" cx="5.02" cy="92.28" r="3.03"/><circle class="cls-2" cx="5.02" cy="85.29" r="3.03"/><circle class="cls-2" cx="5.02" cy="78.3" r="3.03"/><circle class="cls-2" cx="5.02" cy="71.31" r="3.03"/><circle class="cls-2" cx="5.02" cy="64.32" r="3.03"/><circle class="cls-2" cx="5.02" cy="57.33" r="3.03"/><circle class="cls-2" cx="5.02" cy="50.34" r="3.03"/><circle class="cls-2" cx="5.02" cy="43.35" r="3.03"/><circle class="cls-2" cx="5.02" cy="36.36" r="3.03"/><circle class="cls-2" cx="5.02" cy="29.37" r="3.03"/><circle class="cls-2" cx="5.02" cy="22.38" r="3.03"/><circle class="cls-2" cx="5.02" cy="15.39" r="3.03"/><circle class="cls-2" cx="89.18" cy="141.22" r="3.03"/><circle class="cls-2" cx="89.18" cy="134.23" r="3.03"/><circle class="cls-2" cx="89.18" cy="127.24" r="3.03"/><circle class="cls-2" cx="89.18" cy="120.25" r="3.03"/><circle class="cls-2" cx="89.18" cy="113.26" r="3.03"/><circle class="cls-2" cx="89.18" cy="106.27" r="3.03"/><circle class="cls-2" cx="89.18" cy="99.28" r="3.03"/><circle class="cls-2" cx="89.18" cy="92.28" r="3.03"/><circle class="cls-2" cx="89.18" cy="85.29" r="3.03"/><circle class="cls-2" cx="89.18" cy="78.3" r="3.03"/><circle class="cls-2" cx="89.18" cy="71.31" r="3.03"/><circle class="cls-2" cx="89.18" cy="64.32" r="3.03"/><circle class="cls-2" cx="89.18" cy="57.33" r="3.03"/><circle class="cls-2" cx="89.18" cy="50.34" r="3.03"/><circle class="cls-2" cx="89.18" cy="43.35" r="3.03"/><circle class="cls-2" cx="89.18" cy="36.36" r="3.03"/><circle class="cls-2" cx="89.18" cy="29.37" r="3.03"/><circle class="cls-2" cx="89.18" cy="22.38" r="3.03"/><circle class="cls-2" cx="89.18" cy="15.39" r="3.03"/><rect class="cls-2" x="18.33" y="79.09" width="57.54" height="57.54"/><rect class="cls-3" x="18.33" y="136.63" width="57.54" height="19.51"/><rect class="cls-2" x="37.68" width="18.84" height="11.13"/><rect class="cls-2" x="19.96" y="2.11" width="10.25" height="10.25"/><circle cx="25.09" cy="7.24" r="4.06"/><rect class="cls-2" x="63.99" y="2.11" width="10.25" height="10.25"/><circle cx="69.11" cy="7.24" r="4.06"/><path class="cls-1" d="M202.47,165.47a1,1,0,0,1-.87-.35,1.75,1.75,0,0,1-.29-1.12,1.73,1.73,0,0,1,.32-1.13,1.06,1.06,0,0,1,.87-.39,1.39,1.39,0,0,1,.3,0l.24.07-.14.49-.17,0-.15,0a.53.53,0,0,0-.34.1.59.59,0,0,0-.19.31,2,2,0,0,0-.07.6,1.46,1.46,0,0,0,.13.73.46.46,0,0,0,.42.21.52.52,0,0,0,.17,0l.22-.06.13.48a.88.88,0,0,1-.26.09A1.73,1.73,0,0,1,202.47,165.47Z" transform="translate(-192.23 -148.64)"/><path class="cls-1" d="M203.39,165.41v-2.87H204v2.67l-.4-.31h1.24v.51Z" transform="translate(-192.23 -148.64)"/><path class="cls-1" d="M205.26,165.41v-2.87h.65v2.87Zm1.36,0-.71-1.33v-.22l.65-1.32h.64l-.81,1.57v-.34l.91,1.64Z" transform="translate(-192.23 -148.64)"/><path class="cls-1" d="M202,172.46a2.13,2.13,0,0,1-.39,0,2,2,0,0,1-.34-.12l.16-.5a1.29,1.29,0,0,0,.55.13.45.45,0,0,0,.32-.09.36.36,0,0,0,.1-.27.28.28,0,0,0-.06-.2.35.35,0,0,0-.2-.13l-.21-.08a.93.93,0,0,1-.43-.3.8.8,0,0,1-.15-.5.9.9,0,0,1,.25-.66,1,1,0,0,1,.68-.23,2.17,2.17,0,0,1,.38,0,1.12,1.12,0,0,1,.31.1l-.14.49-.24-.08-.22,0a.47.47,0,0,0-.32.09.33.33,0,0,0-.09.25.36.36,0,0,0,.05.19.39.39,0,0,0,.19.12l.21.08a1.21,1.21,0,0,1,.36.18.63.63,0,0,1,.2.26,1.1,1.1,0,0,1,.06.39.85.85,0,0,1-.27.67A1.1,1.1,0,0,1,202,172.46Z" transform="translate(-192.23 -148.64)"/><path class="cls-1" d="M203.45,172.4v-2.87h.85a1,1,0,0,1,.88.36,1.79,1.79,0,0,1,.28,1.08,1.71,1.71,0,0,1-.29,1.07,1,1,0,0,1-.87.36Zm.64-.2-.34-.31h.53a.4.4,0,0,0,.39-.21,1.55,1.55,0,0,0,.12-.72,1.58,1.58,0,0,0-.12-.72.4.4,0,0,0-.39-.21h-.53l.34-.31Z" transform="translate(-192.23 -148.64)"/><path class="cls-1" d="M206.64,172.46a.76.76,0,0,1-.71-.38,3,3,0,0,1,0-2.24.76.76,0,0,1,.71-.37.74.74,0,0,1,.7.37,3,3,0,0,1,0,2.24A.75.75,0,0,1,206.64,172.46Zm0-.49a.19.19,0,0,0,.18-.1.74.74,0,0,0,.08-.32c0-.15,0-.34,0-.59s0-.45,0-.59a.74.74,0,0,0-.08-.32.23.23,0,0,0-.36,0,.72.72,0,0,0-.09.32c0,.14,0,.34,0,.59s0,.44,0,.59a.72.72,0,0,0,.09.32A.19.19,0,0,0,206.64,172Z" transform="translate(-192.23 -148.64)"/><path class="cls-1" d="M202,179.44a1.51,1.51,0,0,1-.39,0,1.93,1.93,0,0,1-.34-.11l.16-.5a1.29,1.29,0,0,0,.55.13.41.41,0,0,0,.32-.1.39.39,0,0,0,0-.47.41.41,0,0,0-.2-.13l-.21-.07a1,1,0,0,1-.43-.31.76.76,0,0,1-.15-.5.89.89,0,0,1,.25-.65,1,1,0,0,1,.68-.24,2.17,2.17,0,0,1,.38,0,1.6,1.6,0,0,1,.31.1l-.14.49-.24-.07-.22,0a.47.47,0,0,0-.32.09.32.32,0,0,0-.09.24.39.39,0,0,0,.05.2.48.48,0,0,0,.19.12l.21.08a1.21,1.21,0,0,1,.36.18.57.57,0,0,1,.2.26,1.07,1.07,0,0,1,.06.39.85.85,0,0,1-.27.67A1.1,1.1,0,0,1,202,179.44Z" transform="translate(-192.23 -148.64)"/><path class="cls-1" d="M203.45,179.38v-2.87h.85a1,1,0,0,1,.88.37,1.79,1.79,0,0,1,.28,1.08,1.71,1.71,0,0,1-.29,1.07,1,1,0,0,1-.87.35Zm.64-.19-.34-.31h.53a.4.4,0,0,0,.39-.21,2.22,2.22,0,0,0,0-1.44.4.4,0,0,0-.39-.21h-.53l.34-.31Z" transform="translate(-192.23 -148.64)"/><path class="cls-1" d="M206.4,179.13V177l.2.25h-.72v-.46l.41,0a.21.21,0,0,0,.12,0,.23.23,0,0,0,.05-.11l0-.15H207v2.68Zm-.51.25v-.5h1.59v.5Z" transform="translate(-192.23 -148.64)"/><path class="cls-1" d="M202.49,186.44a1.08,1.08,0,0,1-.9-.36,2.24,2.24,0,0,1,0-2.24,1.06,1.06,0,0,1,.89-.4,1.68,1.68,0,0,1,.68.13l-.12.47a1.71,1.71,0,0,0-.5-.09.49.49,0,0,0-.46.25,1.57,1.57,0,0,0-.15.79,2.68,2.68,0,0,0,.05.56.51.51,0,0,0,.17.29.54.54,0,0,0,.33.09l.23,0a1,1,0,0,0,.23-.06l-.28.34v-1.14l.35.19h-.7v-.5h.92v1.55a2.62,2.62,0,0,1-.4.11A2.58,2.58,0,0,1,202.49,186.44Z" transform="translate(-192.23 -148.64)"/><path class="cls-1" d="M204.27,186.12V184l.2.26h-.72v-.46l.41,0a.21.21,0,0,0,.12,0,.23.23,0,0,0,.05-.11l0-.16h.53v2.69Zm-.51.25v-.5h1.59v.5Z" transform="translate(-192.23 -148.64)"/><path class="cls-1" d="M206.43,186.43a1.22,1.22,0,0,1-.74-.21l.17-.47.28.13a.88.88,0,0,0,.24,0,.4.4,0,0,0,.32-.11.38.38,0,0,0,.12-.3c0-.29-.13-.44-.37-.44a.55.55,0,0,0-.33.14l-.33-.2v-1.5h1.49V184H206l.34-.4V185l-.08-.2a.56.56,0,0,1,.45-.2.66.66,0,0,1,.54.24,1,1,0,0,1,.2.64.93.93,0,0,1-.26.7A1,1,0,0,1,206.43,186.43Z" transform="translate(-192.23 -148.64)"/><path class="cls-1" d="M202.49,193.42a1.1,1.1,0,0,1-.9-.35,1.81,1.81,0,0,1-.28-1.11,1.77,1.77,0,0,1,.32-1.13,1.07,1.07,0,0,1,.89-.41,1.87,1.87,0,0,1,.68.13l-.12.48a1.76,1.76,0,0,0-.5-.1.51.51,0,0,0-.46.25,1.6,1.6,0,0,0-.15.79,2.79,2.79,0,0,0,.05.57.55.55,0,0,0,.17.29.54.54,0,0,0,.33.08h.23l.23-.06-.28.33V192l.35.18h-.7v-.49h.92v1.55a2.62,2.62,0,0,1-.4.11Z" transform="translate(-192.23 -148.64)"/><path class="cls-1" d="M203.68,193.36v-.48l.7-.81a1.54,1.54,0,0,0,.17-.24.67.67,0,0,0,.1-.23.85.85,0,0,0,0-.23.5.5,0,0,0-.09-.31.38.38,0,0,0-.28-.11.66.66,0,0,0-.23,0,.93.93,0,0,0-.25.12l-.2-.47a1.38,1.38,0,0,1,.37-.16,1.89,1.89,0,0,1,.39,0,.9.9,0,0,1,.67.23.84.84,0,0,1,.23.64,1.47,1.47,0,0,1,0,.36,2.75,2.75,0,0,1-.15.36,2.09,2.09,0,0,1-.26.37l-.55.67-.18-.21h1.24v.51Z" transform="translate(-192.23 -148.64)"/><path class="cls-1" d="M202.49,200.41a1.1,1.1,0,0,1-.9-.35,1.85,1.85,0,0,1-.28-1.11,1.82,1.82,0,0,1,.32-1.14,1.06,1.06,0,0,1,.89-.4,1.68,1.68,0,0,1,.68.13l-.12.47a1.71,1.71,0,0,0-.5-.09.49.49,0,0,0-.46.25,1.6,1.6,0,0,0-.15.79,2.61,2.61,0,0,0,.05.56.48.48,0,0,0,.17.29.54.54,0,0,0,.33.09.93.93,0,0,0,.23,0,1,1,0,0,0,.23-.06l-.28.34V199l.35.19h-.7v-.49h.92v1.55a2.6,2.6,0,0,1-.4.1A1.69,1.69,0,0,1,202.49,200.41Z" transform="translate(-192.23 -148.64)"/><path class="cls-1" d="M204.51,200.4a.76.76,0,0,1-.71-.37,2.26,2.26,0,0,1-.22-1.13,2.22,2.22,0,0,1,.22-1.12.78.78,0,0,1,.71-.37.76.76,0,0,1,.7.37,2.22,2.22,0,0,1,.22,1.12,2.26,2.26,0,0,1-.22,1.13A.74.74,0,0,1,204.51,200.4Zm0-.49a.2.2,0,0,0,.18-.09.78.78,0,0,0,.08-.32c0-.15,0-.35,0-.6s0-.44,0-.59a.69.69,0,0,0-.08-.31.21.21,0,0,0-.36,0,.67.67,0,0,0-.09.31c0,.15,0,.35,0,.59s0,.45,0,.6a.77.77,0,0,0,.09.32A.2.2,0,0,0,204.51,199.91Z" transform="translate(-192.23 -148.64)"/><path class="cls-1" d="M202.49,207.39a1.07,1.07,0,0,1-.9-.35,2.24,2.24,0,0,1,0-2.24,1.06,1.06,0,0,1,.89-.4,1.68,1.68,0,0,1,.68.13l-.12.47a1.71,1.71,0,0,0-.5-.09.49.49,0,0,0-.46.25,1.57,1.57,0,0,0-.15.79,2.75,2.75,0,0,0,.05.56.55.55,0,0,0,.17.29.54.54,0,0,0,.33.09l.23,0a1,1,0,0,0,.23-.06l-.28.34V206l.35.19h-.7v-.5h.92v1.55a2.62,2.62,0,0,1-.4.11Z" transform="translate(-192.23 -148.64)"/><path class="cls-1" d="M204.66,207.33v-2.57l.21.06L204,206.5l-.26-.24h1.78v.5h-1.91v-.47l1-1.83h.6v2.87Z" transform="translate(-192.23 -148.64)"/><path class="cls-1" d="M202.49,214.38a1.1,1.1,0,0,1-.9-.35,2.26,2.26,0,0,1,0-2.25,1.09,1.09,0,0,1,.89-.4,1.87,1.87,0,0,1,.68.13l-.12.48a1.47,1.47,0,0,0-.5-.1.51.51,0,0,0-.46.25,1.6,1.6,0,0,0-.15.79,2.79,2.79,0,0,0,.05.57.55.55,0,0,0,.17.29.54.54,0,0,0,.33.08.93.93,0,0,0,.23,0l.23,0-.28.33V213l.35.18h-.7v-.49h.92v1.55a2.62,2.62,0,0,1-.4.11Z" transform="translate(-192.23 -148.64)"/><path class="cls-1" d="M204.27,214.06V211.9l.2.26h-.72v-.46l.41,0a.34.34,0,0,0,.12,0,.19.19,0,0,0,.05-.11l0-.15h.53v2.68Zm-.51.26v-.51h1.59v.51Z" transform="translate(-192.23 -148.64)"/><path class="cls-1" d="M206.43,214.38a1.22,1.22,0,0,1-.74-.21l.17-.47a1.23,1.23,0,0,0,.28.12.61.61,0,0,0,.24,0,.44.44,0,0,0,.32-.11.4.4,0,0,0,.12-.31c0-.29-.13-.43-.37-.43a.5.5,0,0,0-.33.14l-.33-.2v-1.5h1.49V212H206l.34-.4V213l-.08-.2a.53.53,0,0,1,.45-.2.66.66,0,0,1,.54.24,1,1,0,0,1,.2.64.93.93,0,0,1-.26.7A1,1,0,0,1,206.43,214.38Z" transform="translate(-192.23 -148.64)"/><path class="cls-1" d="M202.49,221.37a1.1,1.1,0,0,1-.9-.35,1.85,1.85,0,0,1-.28-1.11,1.82,1.82,0,0,1,.32-1.14,1.06,1.06,0,0,1,.89-.4,1.68,1.68,0,0,1,.68.13l-.12.47a1.71,1.71,0,0,0-.5-.09.49.49,0,0,0-.46.25,1.6,1.6,0,0,0-.15.79,2.61,2.61,0,0,0,.05.56.48.48,0,0,0,.17.29.54.54,0,0,0,.33.09l.23,0a1,1,0,0,0,.23-.06l-.28.34V220l.35.19h-.7v-.49h.92v1.55a2.6,2.6,0,0,1-.4.1A1.69,1.69,0,0,1,202.49,221.37Z" transform="translate(-192.23 -148.64)"/><path class="cls-1" d="M204.27,221.05v-2.17l.2.26h-.72v-.46l.41,0a.21.21,0,0,0,.12,0,.23.23,0,0,0,.05-.11l0-.16h.53v2.69Zm-.51.25v-.5h1.59v.5Z" transform="translate(-192.23 -148.64)"/><path class="cls-1" d="M205.94,221.3l.95-2.64.24.29h-1.41v-.52h1.69v.47l-.8,2.4Z" transform="translate(-192.23 -148.64)"/><path class="cls-1" d="M202.49,228.35a1.07,1.07,0,0,1-.9-.35,2.24,2.24,0,0,1,0-2.24,1.07,1.07,0,0,1,.89-.41,1.69,1.69,0,0,1,.68.14l-.12.47a1.71,1.71,0,0,0-.5-.09.49.49,0,0,0-.46.25,1.55,1.55,0,0,0-.15.79,2.75,2.75,0,0,0,.05.56.55.55,0,0,0,.17.29.54.54,0,0,0,.33.09l.23,0,.23-.06-.28.34V227l.35.19h-.7v-.5h.92v1.55a2.62,2.62,0,0,1-.4.11Z" transform="translate(-192.23 -148.64)"/><path class="cls-1" d="M204.36,228.35a1.22,1.22,0,0,1-.74-.21l.17-.47.28.13a.88.88,0,0,0,.24,0,.44.44,0,0,0,.32-.11.37.37,0,0,0,.11-.3c0-.29-.12-.44-.36-.44a.55.55,0,0,0-.33.14l-.33-.2v-1.5h1.49v.52h-1.3l.34-.4v1.38l-.08-.2a.56.56,0,0,1,.45-.2.66.66,0,0,1,.54.24,1,1,0,0,1,.2.64.93.93,0,0,1-.26.7A1,1,0,0,1,204.36,228.35Z" transform="translate(-192.23 -148.64)"/><path class="cls-1" d="M202.49,235.34a1.1,1.1,0,0,1-.9-.35,1.85,1.85,0,0,1-.28-1.11,1.82,1.82,0,0,1,.32-1.14,1.09,1.09,0,0,1,.89-.4,1.87,1.87,0,0,1,.68.13l-.12.48a1.47,1.47,0,0,0-.5-.1.51.51,0,0,0-.46.25,1.6,1.6,0,0,0-.15.79,2.61,2.61,0,0,0,.05.56.54.54,0,0,0,.17.3.62.62,0,0,0,.33.08.93.93,0,0,0,.23,0l.23-.05-.28.33V234l.35.18h-.7v-.49h.92v1.55a1.8,1.8,0,0,1-.4.1A1.69,1.69,0,0,1,202.49,235.34Z" transform="translate(-192.23 -148.64)"/><path class="cls-1" d="M204.27,235v-2.16l.2.26h-.72v-.46l.41,0a.34.34,0,0,0,.12,0,.23.23,0,0,0,.05-.11l0-.15h.53V235Zm-.51.26v-.51h1.59v.51Z" transform="translate(-192.23 -148.64)"/><path class="cls-1" d="M206.58,235.34a1,1,0,0,1-.67-.21.9.9,0,0,1-.06-1.13.59.59,0,0,1,.46-.21v0a.5.5,0,0,1-.29-.09.61.61,0,0,1-.21-.24.81.81,0,0,1-.07-.35.77.77,0,0,1,.22-.59.85.85,0,0,1,.62-.21.88.88,0,0,1,.62.21.81.81,0,0,1,.22.59.82.82,0,0,1-.08.35.61.61,0,0,1-.21.24.48.48,0,0,1-.29.09v0a.59.59,0,0,1,.46.21.75.75,0,0,1,.17.53.76.76,0,0,1-.23.6A1,1,0,0,1,206.58,235.34Zm0-.47a.25.25,0,0,0,.22-.1.51.51,0,0,0,.07-.3c0-.28-.1-.42-.29-.42s-.3.14-.3.42a.51.51,0,0,0,.08.3A.25.25,0,0,0,206.58,234.87Zm0-1.28c.18,0,.27-.13.27-.4a.56.56,0,0,0-.07-.29.24.24,0,0,0-.2-.09.26.26,0,0,0-.21.09.57.57,0,0,0-.06.29C206.31,233.46,206.4,233.59,206.58,233.59Z" transform="translate(-192.23 -148.64)"/><path class="cls-1" d="M202.49,242.33a1.1,1.1,0,0,1-.9-.35,1.85,1.85,0,0,1-.28-1.11,1.82,1.82,0,0,1,.32-1.14,1.06,1.06,0,0,1,.89-.4,1.68,1.68,0,0,1,.68.13l-.12.47a1.71,1.71,0,0,0-.5-.09.49.49,0,0,0-.46.25,1.57,1.57,0,0,0-.15.79,2.68,2.68,0,0,0,.05.56.51.51,0,0,0,.17.29.54.54,0,0,0,.33.09l.23,0a1,1,0,0,0,.23-.06l-.28.34v-1.14l.35.19h-.7v-.49h.92v1.55a2.84,2.84,0,0,1-.78.14Z" transform="translate(-192.23 -148.64)"/><path class="cls-1" d="M204.27,242v-2.17l.2.26h-.72v-.46l.41,0a.21.21,0,0,0,.12,0,.23.23,0,0,0,.05-.11l0-.16h.53V242Zm-.51.25v-.5h1.59v.5Z" transform="translate(-192.23 -148.64)"/><path class="cls-1" d="M206.38,242.32a1.39,1.39,0,0,1-.35,0,1.42,1.42,0,0,1-.3-.13l.14-.46.23.09.22,0a.43.43,0,0,0,.41-.23,1.63,1.63,0,0,0,.13-.78v-.22a2,2,0,0,0-.07-.59.26.26,0,0,0-.23-.19.24.24,0,0,0-.21.12.64.64,0,0,0-.07.34c0,.29.09.44.26.44a.33.33,0,0,0,.19-.06.26.26,0,0,0,.14-.13l0,.3a.51.51,0,0,1-.22.24.64.64,0,0,1-.34.09.61.61,0,0,1-.5-.23,1,1,0,0,1-.2-.64,1,1,0,0,1,.24-.69.83.83,0,0,1,.64-.25.79.79,0,0,1,.71.35,2,2,0,0,1,.23,1.08,2.08,2.08,0,0,1-.27,1.18A1,1,0,0,1,206.38,242.32Z" transform="translate(-192.23 -148.64)"/><path class="cls-1" d="M202.49,249.31a1.07,1.07,0,0,1-.9-.35,2.24,2.24,0,0,1,0-2.24,1.07,1.07,0,0,1,.89-.41,1.69,1.69,0,0,1,.68.14l-.12.47a1.71,1.71,0,0,0-.5-.09.5.5,0,0,0-.46.24,1.6,1.6,0,0,0-.15.79,2.79,2.79,0,0,0,.05.57.55.55,0,0,0,.17.29.54.54,0,0,0,.33.09l.23,0,.23-.06-.28.34v-1.14l.35.19h-.7v-.5h.92v1.55a2.62,2.62,0,0,1-.4.11Z" transform="translate(-192.23 -148.64)"/><path class="cls-1" d="M203.72,249.25v-2.87h.69l.91,2.22-.14.15v-2.37h.56v2.87h-.68l-.91-2.22.14-.15v2.37Z" transform="translate(-192.23 -148.64)"/><path class="cls-1" d="M206.24,249.25v-2.87h.86a1,1,0,0,1,.87.36,2.14,2.14,0,0,1,0,2.15,1,1,0,0,1-.87.36Zm.65-.2-.34-.31h.52a.42.42,0,0,0,.4-.21,1.55,1.55,0,0,0,.12-.72,1.53,1.53,0,0,0-.12-.71.42.42,0,0,0-.4-.21h-.52l.34-.32Z" transform="translate(-192.23 -148.64)"/><path class="cls-1" d="M202.49,256.3a1.1,1.1,0,0,1-.9-.35,1.85,1.85,0,0,1-.28-1.11,1.82,1.82,0,0,1,.32-1.14,1.09,1.09,0,0,1,.89-.4,1.87,1.87,0,0,1,.68.13l-.12.48a1.47,1.47,0,0,0-.5-.1.51.51,0,0,0-.46.25,1.6,1.6,0,0,0-.15.79,2.61,2.61,0,0,0,.05.56.54.54,0,0,0,.17.3.62.62,0,0,0,.33.08.93.93,0,0,0,.23,0l.23-.05-.28.33v-1.13l.35.18h-.7v-.49h.92v1.55a2.6,2.6,0,0,1-.4.1A1.69,1.69,0,0,1,202.49,256.3Z" transform="translate(-192.23 -148.64)"/><path class="cls-1" d="M203.68,256.24v-.48l.7-.81a2.22,2.22,0,0,0,.17-.24.77.77,0,0,0,.1-.23.85.85,0,0,0,0-.23.48.48,0,0,0-.09-.31.38.38,0,0,0-.28-.11.66.66,0,0,0-.23,0,.93.93,0,0,0-.25.12l-.2-.48a1.79,1.79,0,0,1,.37-.15,1.39,1.39,0,0,1,.39-.05.9.9,0,0,1,.67.23.84.84,0,0,1,.23.64,1.47,1.47,0,0,1,0,.36,2.75,2.75,0,0,1-.15.36,2.53,2.53,0,0,1-.26.37l-.55.66-.18-.21h1.24v.52Z" transform="translate(-192.23 -148.64)"/><path class="cls-1" d="M206.34,256v-2.16l.2.26h-.72v-.46l.41,0a.21.21,0,0,0,.12,0,.23.23,0,0,0,.05-.11l0-.15H207V256Zm-.51.26v-.51h1.59v.51Z" transform="translate(-192.23 -148.64)"/><path class="cls-1" d="M201.41,263.22v-2.87h.87a1.06,1.06,0,0,1,.48.1.72.72,0,0,1,.33.29,1,1,0,0,1,.12.53,1.15,1.15,0,0,1-.08.44.71.71,0,0,1-.22.26.67.67,0,0,1-.3.13l-.32.06h-.62v-.46h.57a.32.32,0,0,0,.23-.09.65.65,0,0,0,0-.69.32.32,0,0,0-.23-.09h-.55l.34-.28v2.67Zm1.31,0-.56-1.25.57-.08.66,1.33Z" transform="translate(-192.23 -148.64)"/><path class="cls-1" d="M203.48,263.22l.76-1.6.25-.14.46-1.13h.64l-.76,1.59-.26.17-.45,1.11Zm1.45,0-.45-1.09-.2-.17-.75-1.61h.69l.41,1,.18.19.81,1.64Z" transform="translate(-192.23 -148.64)"/><path class="cls-1" d="M205.89,263.22v-2.87h.85a1,1,0,0,1,.88.36,1.82,1.82,0,0,1,.28,1.09,1.67,1.67,0,0,1-.29,1.06,1,1,0,0,1-.87.36Zm.64-.19-.34-.31h.53a.41.41,0,0,0,.39-.22,1.53,1.53,0,0,0,.12-.71,1.55,1.55,0,0,0-.12-.72.4.4,0,0,0-.39-.21h-.53l.34-.31Z" transform="translate(-192.23 -148.64)"/><path class="cls-1" d="M201.24,267.85v-.51h1.81v.51Zm.58,2.36v-2.66h.65v2.66Z" transform="translate(-192.23 -148.64)"/><path class="cls-1" d="M203.19,270.21l.77-1.61.24-.14.46-1.12h.65l-.76,1.59-.27.17-.44,1.11Zm1.46,0-.46-1.1-.2-.17-.74-1.6h.68l.42,1,.17.19.81,1.64Z" transform="translate(-192.23 -148.64)"/><path class="cls-1" d="M205.6,270.21v-2.87h.85a1,1,0,0,1,.88.36,2.2,2.2,0,0,1,0,2.15,1,1,0,0,1-.88.36Zm.64-.2-.33-.31h.52a.42.42,0,0,0,.4-.21,1.73,1.73,0,0,0,.11-.72,1.71,1.71,0,0,0-.11-.71.41.41,0,0,0-.4-.22h-.52l.33-.31Z" transform="translate(-192.23 -148.64)"/><path class="cls-1" d="M202.49,277.26a1.1,1.1,0,0,1-.9-.35,1.85,1.85,0,0,1-.28-1.11,1.82,1.82,0,0,1,.32-1.14,1.06,1.06,0,0,1,.89-.4,1.68,1.68,0,0,1,.68.13l-.12.47a1.71,1.71,0,0,0-.5-.09.49.49,0,0,0-.46.25,1.6,1.6,0,0,0-.15.79,2.61,2.61,0,0,0,.05.56.48.48,0,0,0,.17.29.54.54,0,0,0,.33.09.93.93,0,0,0,.23,0l.23-.05-.28.33v-1.14l.35.19h-.7v-.49h.92v1.55a2.6,2.6,0,0,1-.4.1A1.69,1.69,0,0,1,202.49,277.26Z" transform="translate(-192.23 -148.64)"/><path class="cls-1" d="M203.68,277.2v-.48l.7-.82a1.5,1.5,0,0,0,.17-.23.77.77,0,0,0,.1-.23.85.85,0,0,0,0-.23.48.48,0,0,0-.09-.31.38.38,0,0,0-.28-.11.66.66,0,0,0-.23,0,.93.93,0,0,0-.25.12l-.2-.48a1.79,1.79,0,0,1,.37-.15,1.43,1.43,0,0,1,.39-.06.9.9,0,0,1,.67.24.82.82,0,0,1,.23.64,1.47,1.47,0,0,1,0,.36,2.75,2.75,0,0,1-.15.36,2.53,2.53,0,0,1-.26.37l-.55.66-.18-.21h1.24v.52Z" transform="translate(-192.23 -148.64)"/><path class="cls-1" d="M205.75,277.2v-.48l.7-.82a1.5,1.5,0,0,0,.17-.23.77.77,0,0,0,.1-.23.85.85,0,0,0,0-.23.48.48,0,0,0-.09-.31.38.38,0,0,0-.28-.11.66.66,0,0,0-.23,0,.93.93,0,0,0-.25.12l-.2-.48a1.79,1.79,0,0,1,.37-.15,1.43,1.43,0,0,1,.39-.06.9.9,0,0,1,.67.24.82.82,0,0,1,.23.64,1.47,1.47,0,0,1,0,.36,2.75,2.75,0,0,1-.15.36,2.53,2.53,0,0,1-.26.37l-.55.66-.18-.21h1.24v.52Z" transform="translate(-192.23 -148.64)"/><path class="cls-1" d="M202.49,284.25a1.08,1.08,0,0,1-.9-.36,2.24,2.24,0,0,1,0-2.24,1.06,1.06,0,0,1,.89-.4,1.68,1.68,0,0,1,.68.13l-.12.47a1.71,1.71,0,0,0-.5-.09.49.49,0,0,0-.46.25,1.57,1.57,0,0,0-.15.79,2.68,2.68,0,0,0,.05.56.51.51,0,0,0,.17.29.54.54,0,0,0,.33.09l.23,0a1,1,0,0,0,.23-.06l-.28.34v-1.14l.35.19h-.7v-.5h.92v1.56a2.84,2.84,0,0,1-.78.14Z" transform="translate(-192.23 -148.64)"/><path class="cls-1" d="M203.68,284.18v-.47l.7-.82a1.18,1.18,0,0,0,.17-.24.72.72,0,0,0,.1-.22.91.91,0,0,0,0-.23.46.46,0,0,0-.09-.31.35.35,0,0,0-.28-.12,1,1,0,0,0-.23,0l-.25.12-.2-.47a1.11,1.11,0,0,1,.37-.15,1.43,1.43,0,0,1,.39-.06.94.94,0,0,1,.67.23.85.85,0,0,1,.23.64,1.5,1.5,0,0,1,0,.37,2.75,2.75,0,0,1-.15.36,2,2,0,0,1-.26.36l-.55.67-.18-.21h1.24v.51Z" transform="translate(-192.23 -148.64)"/><path class="cls-1" d="M206.43,284.24a1.34,1.34,0,0,1-.42-.05,1.09,1.09,0,0,1-.35-.15l.17-.48a1,1,0,0,0,.53.16.38.38,0,0,0,.41-.41.34.34,0,0,0-.1-.25.41.41,0,0,0-.28-.09h-.23v-.51h.21a.38.38,0,0,0,.27-.08.36.36,0,0,0,.09-.26c0-.23-.11-.35-.33-.35a1.19,1.19,0,0,0-.51.14l-.18-.46a1.56,1.56,0,0,1,.39-.15,1.44,1.44,0,0,1,.41-.05.87.87,0,0,1,.63.21.78.78,0,0,1,.21.6.63.63,0,0,1-.15.41.8.8,0,0,1-.42.25v-.07a.72.72,0,0,1,.46.23.68.68,0,0,1,.16.48.8.8,0,0,1-.26.64A1,1,0,0,1,206.43,284.24Z" transform="translate(-192.23 -148.64)"/><path class="cls-1" d="M202.49,291.23a1.07,1.07,0,0,1-.9-.35,1.81,1.81,0,0,1-.28-1.11,1.77,1.77,0,0,1,.32-1.13,1.07,1.07,0,0,1,.89-.41,1.69,1.69,0,0,1,.68.14l-.12.47a1.76,1.76,0,0,0-.5-.1.51.51,0,0,0-.46.25,1.6,1.6,0,0,0-.15.79,2.79,2.79,0,0,0,.05.57.55.55,0,0,0,.17.29.54.54,0,0,0,.33.09l.23,0,.23-.06-.28.34v-1.14l.35.19h-.7v-.5h.92v1.55a2.62,2.62,0,0,1-.4.11Z" transform="translate(-192.23 -148.64)"/><path class="cls-1" d="M203.72,291.17V288.3h.69l.91,2.22-.14.15V288.3h.56v2.87h-.68l-.91-2.23.14-.14v2.37Z" transform="translate(-192.23 -148.64)"/><path class="cls-1" d="M206.24,291.17V288.3h.86a1,1,0,0,1,.87.36,2.14,2.14,0,0,1,0,2.15,1,1,0,0,1-.87.36Zm.65-.2-.34-.31h.52a.42.42,0,0,0,.4-.21,1.55,1.55,0,0,0,.12-.72,1.51,1.51,0,0,0-.12-.71.41.41,0,0,0-.4-.22h-.52l.34-.31Z" transform="translate(-192.23 -148.64)"/><path class="cls-1" d="M273.68,165.41l-.67-2.87h.68l.51,2.79-.13,0,.5-2.77h.65l-.66,2.87Z" transform="translate(-192.23 -148.64)"/><path class="cls-1" d="M276.14,165.47a1.22,1.22,0,0,1-.74-.21l.17-.47a1.33,1.33,0,0,0,.28.13.88.88,0,0,0,.24,0,.4.4,0,0,0,.32-.11.37.37,0,0,0,.11-.3c0-.29-.12-.44-.36-.44a.55.55,0,0,0-.33.14l-.33-.2v-1.5H277v.52h-1.3l.34-.4V164l-.08-.2a.56.56,0,0,1,.45-.2.66.66,0,0,1,.54.24,1,1,0,0,1,.2.64.91.91,0,0,1-.26.7A1,1,0,0,1,276.14,165.47Z" transform="translate(-192.23 -148.64)"/><path class="cls-1" d="M270.87,172.46a1.07,1.07,0,0,1-.89-.35,1.74,1.74,0,0,1-.28-1.11,1.77,1.77,0,0,1,.31-1.13,1.08,1.08,0,0,1,.9-.41,1.64,1.64,0,0,1,.67.14l-.12.47a1.7,1.7,0,0,0-.49-.1.53.53,0,0,0-.47.25,1.74,1.74,0,0,0-.14.79,2.22,2.22,0,0,0,.05.57.49.49,0,0,0,.17.29.54.54,0,0,0,.33.09l.22,0,.23-.06-.27.34v-1.14l.35.19h-.7v-.5h.91v1.55a2.85,2.85,0,0,1-.39.11Z" transform="translate(-192.23 -148.64)"/><path class="cls-1" d="M272.11,172.4v-2.87h.74l.59,1.95h-.09l.59-1.95h.72v2.87h-.56v-2.47l.16,0-.62,2h-.51l-.61-2,.15-.07v2.49Z" transform="translate(-192.23 -148.64)"/><path class="cls-1" d="M275.17,172.4v-2.87H276a1.06,1.06,0,0,1,.88.36,1.79,1.79,0,0,1,.28,1.08,1.71,1.71,0,0,1-.29,1.07,1,1,0,0,1-.87.36Zm.64-.2-.34-.31H276a.4.4,0,0,0,.39-.21,1.55,1.55,0,0,0,.12-.72,1.58,1.58,0,0,0-.12-.72A.4.4,0,0,0,276,170h-.53l.34-.31Z" transform="translate(-192.23 -148.64)"/><path class="cls-1" d="M271.67,179.44a1.51,1.51,0,0,1-.39,0,1.93,1.93,0,0,1-.34-.11l.16-.5a1.29,1.29,0,0,0,.55.13.41.41,0,0,0,.32-.1.39.39,0,0,0,0-.47.41.41,0,0,0-.2-.13l-.21-.07a1,1,0,0,1-.43-.31.76.76,0,0,1-.15-.5.89.89,0,0,1,.25-.65,1,1,0,0,1,.68-.24,2.17,2.17,0,0,1,.38,0,1.6,1.6,0,0,1,.31.1l-.14.49-.24-.07-.22,0a.47.47,0,0,0-.32.09.32.32,0,0,0-.09.24.39.39,0,0,0,.05.2.48.48,0,0,0,.19.12l.21.08a1.21,1.21,0,0,1,.36.18.57.57,0,0,1,.2.26,1.07,1.07,0,0,1,.06.39.85.85,0,0,1-.27.67A1.1,1.1,0,0,1,271.67,179.44Z" transform="translate(-192.23 -148.64)"/><path class="cls-1" d="M273.1,179.38v-2.87H274a1,1,0,0,1,.87.37,2.14,2.14,0,0,1,0,2.15,1,1,0,0,1-.87.35Zm.64-.19-.34-.31h.53a.4.4,0,0,0,.39-.21,2.22,2.22,0,0,0,0-1.44.4.4,0,0,0-.39-.21h-.53l.34-.31Z" transform="translate(-192.23 -148.64)"/><path class="cls-1" d="M276.14,179.44a1.76,1.76,0,0,1-.42,0,.93.93,0,0,1-.35-.16l.17-.48a1,1,0,0,0,.53.16.37.37,0,0,0,.3-.11.41.41,0,0,0,.11-.3.34.34,0,0,0-.1-.25.41.41,0,0,0-.28-.08h-.23v-.51h.21a.38.38,0,0,0,.27-.09.36.36,0,0,0,.09-.26c0-.23-.11-.35-.33-.35a1.16,1.16,0,0,0-.51.14l-.18-.46a2.08,2.08,0,0,1,.39-.15,1.92,1.92,0,0,1,.41-.05.89.89,0,0,1,.63.21.81.81,0,0,1,.21.6.61.61,0,0,1-.15.41.8.8,0,0,1-.42.25v-.07a.73.73,0,0,1,.46.24.67.67,0,0,1,.16.47.86.86,0,0,1-.26.65A1,1,0,0,1,276.14,179.44Z" transform="translate(-192.23 -148.64)"/><path class="cls-1" d="M271.67,186.43a1.51,1.51,0,0,1-.39,0,2,2,0,0,1-.34-.12l.16-.5a1.32,1.32,0,0,0,.55.14.45.45,0,0,0,.32-.1.35.35,0,0,0,.1-.27.32.32,0,0,0-.06-.2.41.41,0,0,0-.2-.13l-.21-.08a.93.93,0,0,1-.43-.3.78.78,0,0,1-.15-.5.86.86,0,0,1,.25-.65,1,1,0,0,1,.68-.24,2.17,2.17,0,0,1,.38,0,1.12,1.12,0,0,1,.31.1l-.14.49a1.53,1.53,0,0,0-.24-.07l-.22,0a.47.47,0,0,0-.32.09.35.35,0,0,0-.09.25.36.36,0,0,0,.05.19.48.48,0,0,0,.19.13l.21.07a1.21,1.21,0,0,1,.36.18.63.63,0,0,1,.2.26,1.16,1.16,0,0,1,.06.4.82.82,0,0,1-.27.66A1.1,1.1,0,0,1,271.67,186.43Z" transform="translate(-192.23 -148.64)"/><path class="cls-1" d="M273.1,186.37V183.5H274a1,1,0,0,1,.87.36,1.72,1.72,0,0,1,.29,1.08,1.69,1.69,0,0,1-.29,1.07,1,1,0,0,1-.87.36Zm.64-.19-.34-.32h.53a.4.4,0,0,0,.39-.21,1.53,1.53,0,0,0,.12-.71,1.55,1.55,0,0,0-.12-.72.4.4,0,0,0-.39-.21h-.53l.34-.31Z" transform="translate(-192.23 -148.64)"/><path class="cls-1" d="M275.46,186.37v-.47l.7-.82a1.18,1.18,0,0,0,.17-.24.72.72,0,0,0,.1-.22.91.91,0,0,0,0-.23.46.46,0,0,0-.09-.31.35.35,0,0,0-.28-.12,1,1,0,0,0-.23,0l-.25.12-.2-.47a1.11,1.11,0,0,1,.37-.15,1.43,1.43,0,0,1,.39-.06,1,1,0,0,1,.67.23.9.9,0,0,1,.23.64,1.14,1.14,0,0,1-.05.37,1.78,1.78,0,0,1-.14.36,2,2,0,0,1-.26.36l-.55.67-.18-.21h1.24v.51Z" transform="translate(-192.23 -148.64)"/><path class="cls-1" d="M272.2,193.42a1.1,1.1,0,0,1-.9-.35A1.74,1.74,0,0,1,271,192a1.77,1.77,0,0,1,.32-1.13,1.07,1.07,0,0,1,.89-.41,1.87,1.87,0,0,1,.68.13l-.13.48a1.64,1.64,0,0,0-.49-.1.51.51,0,0,0-.46.25,1.6,1.6,0,0,0-.15.79,2.79,2.79,0,0,0,.05.57.55.55,0,0,0,.17.29.54.54,0,0,0,.33.08h.23l.23-.06-.28.33V192l.35.18h-.7v-.49H273v1.55a3.45,3.45,0,0,1-.4.11Z" transform="translate(-192.23 -148.64)"/><path class="cls-1" d="M274,193.1v-2.16l.2.26h-.72v-.46l.41,0,.12,0a.19.19,0,0,0,.05-.11l0-.15h.52v2.68Zm-.51.26v-.5h1.59v.5Z" transform="translate(-192.23 -148.64)"/><path class="cls-1" d="M276.14,193.42a1.73,1.73,0,0,1-.42,0,1.25,1.25,0,0,1-.36-.15l.18-.48a1.1,1.1,0,0,0,.53.15.4.4,0,0,0,.3-.1.42.42,0,0,0,.11-.31.31.31,0,0,0-.1-.24.41.41,0,0,0-.28-.09h-.23v-.51h.21a.4.4,0,0,0,.27-.09.34.34,0,0,0,.09-.26c0-.23-.11-.34-.33-.34a1.13,1.13,0,0,0-.51.13l-.18-.45a2.14,2.14,0,0,1,.39-.16,1.84,1.84,0,0,1,.41-.05.89.89,0,0,1,.63.21.81.81,0,0,1,.21.6.64.64,0,0,1-.15.42.79.79,0,0,1-.42.24v-.07a.78.78,0,0,1,.46.24.67.67,0,0,1,.16.47.86.86,0,0,1-.26.65A1,1,0,0,1,276.14,193.42Z" transform="translate(-192.23 -148.64)"/><path class="cls-1" d="M271.41,200.41a1.07,1.07,0,0,1-.89-.35,1.78,1.78,0,0,1-.29-1.11,1.82,1.82,0,0,1,.32-1.14,1.06,1.06,0,0,1,.89-.4,1.65,1.65,0,0,1,.68.13L272,198a1.71,1.71,0,0,0-.49-.09.5.5,0,0,0-.47.25,1.6,1.6,0,0,0-.15.79,2.61,2.61,0,0,0,.05.56.53.53,0,0,0,.17.29.54.54,0,0,0,.33.09.9.9,0,0,0,.23,0,1,1,0,0,0,.23-.06l-.27.34V199l.34.19h-.7v-.49h.92v1.55a2.6,2.6,0,0,1-.4.1A1.69,1.69,0,0,1,271.41,200.41Z" transform="translate(-192.23 -148.64)"/><path class="cls-1" d="M272.64,200.34v-2.87h.69l.91,2.23-.14.14v-2.37h.56v2.87H274l-.91-2.22.14-.14v2.36Z" transform="translate(-192.23 -148.64)"/><path class="cls-1" d="M275.17,200.34v-2.87H276a1,1,0,0,1,.88.37,1.79,1.79,0,0,1,.28,1.08,1.67,1.67,0,0,1-.29,1.06,1,1,0,0,1-.87.36Zm.64-.19-.34-.31H276a.4.4,0,0,0,.39-.21,2.22,2.22,0,0,0,0-1.44A.4.4,0,0,0,276,198h-.53l.34-.31Z" transform="translate(-192.23 -148.64)"/><path class="cls-1" d="M272.2,207.39a1.07,1.07,0,0,1-.9-.35,1.74,1.74,0,0,1-.28-1.11,1.79,1.79,0,0,1,.32-1.13,1.06,1.06,0,0,1,.89-.4,1.68,1.68,0,0,1,.68.13l-.13.47a1.6,1.6,0,0,0-.49-.09.49.49,0,0,0-.46.25,1.57,1.57,0,0,0-.15.79,2.75,2.75,0,0,0,.05.56.55.55,0,0,0,.17.29.54.54,0,0,0,.33.09l.23,0a1,1,0,0,0,.23-.06l-.28.34V206l.35.19h-.7v-.5H273v1.55a3.45,3.45,0,0,1-.4.11Z" transform="translate(-192.23 -148.64)"/><path class="cls-1" d="M274,207.08v-2.17l.2.26h-.72v-.46l.41,0a.21.21,0,0,0,.12,0,.23.23,0,0,0,.05-.12l0-.15h.52v2.69Zm-.51.25v-.5h1.59v.5Z" transform="translate(-192.23 -148.64)"/><path class="cls-1" d="M275.45,207.33v-.47l.71-.82a1.18,1.18,0,0,0,.17-.24,1.07,1.07,0,0,0,.1-.22,1,1,0,0,0,0-.23.46.46,0,0,0-.1-.32.34.34,0,0,0-.27-.11,1,1,0,0,0-.23,0l-.25.12-.2-.47a1.11,1.11,0,0,1,.37-.15,1.43,1.43,0,0,1,.39-.06,1,1,0,0,1,.67.23.9.9,0,0,1,.23.64,1,1,0,0,1-.05.36,2.13,2.13,0,0,1-.14.37,2.7,2.7,0,0,1-.26.36l-.55.67-.18-.21h1.24v.51Z" transform="translate(-192.23 -148.64)"/><path class="cls-1" d="M272.2,214.38a1.1,1.1,0,0,1-.9-.35,1.74,1.74,0,0,1-.28-1.11,1.82,1.82,0,0,1,.32-1.14,1.09,1.09,0,0,1,.89-.4,1.87,1.87,0,0,1,.68.13l-.13.48a1.38,1.38,0,0,0-.49-.1.51.51,0,0,0-.46.25,1.6,1.6,0,0,0-.15.79,2.79,2.79,0,0,0,.05.57.55.55,0,0,0,.17.29.54.54,0,0,0,.33.08.93.93,0,0,0,.23,0l.23,0-.28.33V213l.35.18h-.7v-.49H273v1.55a3.45,3.45,0,0,1-.4.11Z" transform="translate(-192.23 -148.64)"/><path class="cls-1" d="M274,214.06V211.9l.2.26h-.72v-.46l.41,0,.12,0a.19.19,0,0,0,.05-.11l0-.15h.52v2.68Zm-.51.26v-.51h1.59v.51Z" transform="translate(-192.23 -148.64)"/><path class="cls-1" d="M276.44,214.32v-2.58l.21.06-.92,1.69-.26-.24h1.78v.5h-1.91v-.47l1-1.83h.6v2.87Z" transform="translate(-192.23 -148.64)"/><path class="cls-1" d="M272.2,221.37a1.1,1.1,0,0,1-.9-.35,1.78,1.78,0,0,1-.28-1.11,1.82,1.82,0,0,1,.32-1.14,1.06,1.06,0,0,1,.89-.4,1.68,1.68,0,0,1,.68.13l-.13.47a1.6,1.6,0,0,0-.49-.09.49.49,0,0,0-.46.25,1.6,1.6,0,0,0-.15.79,2.61,2.61,0,0,0,.05.56.48.48,0,0,0,.17.29.54.54,0,0,0,.33.09l.23,0a1,1,0,0,0,.23-.06l-.28.34V220l.35.19h-.7v-.49H273v1.55a3.34,3.34,0,0,1-.4.1A1.69,1.69,0,0,1,272.2,221.37Z" transform="translate(-192.23 -148.64)"/><path class="cls-1" d="M273.38,221.3v-.47l.71-.82a1.5,1.5,0,0,0,.17-.23,1.15,1.15,0,0,0,.1-.23.85.85,0,0,0,0-.23.43.43,0,0,0-.1-.31.31.31,0,0,0-.27-.11.66.66,0,0,0-.23,0,1.06,1.06,0,0,0-.25.11l-.2-.47a1.79,1.79,0,0,1,.37-.15,1.43,1.43,0,0,1,.39-.06.92.92,0,0,1,.67.24.86.86,0,0,1,.23.64,1.12,1.12,0,0,1-.05.36,1.78,1.78,0,0,1-.14.36,3.62,3.62,0,0,1-.26.37L274,221l-.18-.21h1.24v.51Z" transform="translate(-192.23 -148.64)"/><path class="cls-1" d="M275.65,221.3l1-2.64.24.29h-1.41v-.52h1.69v.47l-.8,2.4Z" transform="translate(-192.23 -148.64)"/><path class="cls-1" d="M272.2,228.35a1.07,1.07,0,0,1-.9-.35,1.74,1.74,0,0,1-.28-1.11,1.79,1.79,0,0,1,.32-1.13,1.07,1.07,0,0,1,.89-.41,1.69,1.69,0,0,1,.68.14l-.13.47a1.6,1.6,0,0,0-.49-.09.49.49,0,0,0-.46.25,1.55,1.55,0,0,0-.15.79,2.75,2.75,0,0,0,.05.56.55.55,0,0,0,.17.29.54.54,0,0,0,.33.09l.23,0,.23-.06-.28.34V227l.35.19h-.7v-.5H273v1.55a3.45,3.45,0,0,1-.4.11Z" transform="translate(-192.23 -148.64)"/><path class="cls-1" d="M273.38,228.29v-.47l.71-.82a1.18,1.18,0,0,0,.17-.24,1.07,1.07,0,0,0,.1-.22,1,1,0,0,0,0-.24.45.45,0,0,0-.1-.31.34.34,0,0,0-.27-.11,1,1,0,0,0-.23,0l-.25.12-.2-.47a1.38,1.38,0,0,1,.37-.16,1.89,1.89,0,0,1,.39,0,1,1,0,0,1,.67.23.9.9,0,0,1,.23.64,1.08,1.08,0,0,1-.05.36,1.78,1.78,0,0,1-.14.36,2.26,2.26,0,0,1-.26.37L274,228l-.18-.21h1.24v.51Z" transform="translate(-192.23 -148.64)"/><path class="cls-1" d="M276.32,228.35a.8.8,0,0,1-.71-.35,2.68,2.68,0,0,1,0-2.26,1,1,0,0,1,.84-.39,1.4,1.4,0,0,1,.34.05.83.83,0,0,1,.3.13L277,226a.92.92,0,0,0-.23-.09l-.22,0a.42.42,0,0,0-.41.23,1.77,1.77,0,0,0-.13.78v.22a1.73,1.73,0,0,0,.08.59.23.23,0,0,0,.23.18.22.22,0,0,0,.2-.11.64.64,0,0,0,.07-.34c0-.29-.08-.44-.26-.44a.41.41,0,0,0-.19.05.32.32,0,0,0-.14.14l-.05-.31a.56.56,0,0,1,.22-.24.67.67,0,0,1,.34-.09.63.63,0,0,1,.51.24,1,1,0,0,1,.19.63,1,1,0,0,1-.24.7A.81.81,0,0,1,276.32,228.35Z" transform="translate(-192.23 -148.64)"/><path class="cls-1" d="M272.2,235.34a1.1,1.1,0,0,1-.9-.35,1.78,1.78,0,0,1-.28-1.11,1.82,1.82,0,0,1,.32-1.14,1.09,1.09,0,0,1,.89-.4,1.87,1.87,0,0,1,.68.13l-.13.48a1.38,1.38,0,0,0-.49-.1.51.51,0,0,0-.46.25,1.6,1.6,0,0,0-.15.79,2.61,2.61,0,0,0,.05.56.54.54,0,0,0,.17.3.62.62,0,0,0,.33.08.93.93,0,0,0,.23,0l.23-.05-.28.33V234l.35.18h-.7v-.49H273v1.55a2.13,2.13,0,0,1-.4.1A1.69,1.69,0,0,1,272.2,235.34Z" transform="translate(-192.23 -148.64)"/><path class="cls-1" d="M273.38,235.28v-.48l.71-.81a2.22,2.22,0,0,0,.17-.24,1.15,1.15,0,0,0,.1-.23.85.85,0,0,0,0-.23.43.43,0,0,0-.1-.31.34.34,0,0,0-.27-.11.66.66,0,0,0-.23,0,.81.81,0,0,0-.25.12l-.2-.48a1.79,1.79,0,0,1,.37-.15,1.39,1.39,0,0,1,.39-.05.91.91,0,0,1,.67.23.88.88,0,0,1,.23.64,1.12,1.12,0,0,1-.05.36,1.78,1.78,0,0,1-.14.36,3.62,3.62,0,0,1-.26.37L274,235l-.18-.2h1.24v.51Z" transform="translate(-192.23 -148.64)"/><path class="cls-1" d="M276.14,235.34a1.22,1.22,0,0,1-.74-.21l.17-.47a1.41,1.41,0,0,0,.27.12.69.69,0,0,0,.25,0,.44.44,0,0,0,.32-.11.39.39,0,0,0,.11-.31c0-.29-.12-.43-.36-.43a.48.48,0,0,0-.33.14l-.33-.2v-1.5H277v.52h-1.3l.34-.4v1.38l-.09-.21a.59.59,0,0,1,.46-.19.66.66,0,0,1,.54.24,1,1,0,0,1,.2.64.94.94,0,0,1-.26.7A1,1,0,0,1,276.14,235.34Z" transform="translate(-192.23 -148.64)"/><path class="cls-1" d="M272.2,242.33a1.1,1.1,0,0,1-.9-.35,1.78,1.78,0,0,1-.28-1.11,1.82,1.82,0,0,1,.32-1.14,1.06,1.06,0,0,1,.89-.4,1.68,1.68,0,0,1,.68.13l-.13.47a1.6,1.6,0,0,0-.49-.09.49.49,0,0,0-.46.25,1.57,1.57,0,0,0-.15.79,2.68,2.68,0,0,0,.05.56.51.51,0,0,0,.17.29.54.54,0,0,0,.33.09l.23,0a1,1,0,0,0,.23-.06l-.28.34v-1.14l.35.19h-.7v-.49H273v1.55a3.34,3.34,0,0,1-.4.1A2.58,2.58,0,0,1,272.2,242.33Z" transform="translate(-192.23 -148.64)"/><path class="cls-1" d="M274.07,242.32a1.76,1.76,0,0,1-.42,0,1.65,1.65,0,0,1-.36-.16l.18-.48a1,1,0,0,0,.53.16.38.38,0,0,0,.41-.41.34.34,0,0,0-.1-.25.41.41,0,0,0-.28-.09h-.23v-.5H274a.36.36,0,0,0,.26-.09.33.33,0,0,0,.1-.26c0-.23-.11-.35-.33-.35a1.16,1.16,0,0,0-.51.14l-.18-.46a1.56,1.56,0,0,1,.39-.15,1.4,1.4,0,0,1,.41,0,.89.89,0,0,1,.63.21.81.81,0,0,1,.21.6.63.63,0,0,1-.15.41.8.8,0,0,1-.42.25v-.07a.72.72,0,0,1,.46.23.7.7,0,0,1,.16.48.82.82,0,0,1-.26.64A1,1,0,0,1,274.07,242.32Z" transform="translate(-192.23 -148.64)"/><path class="cls-1" d="M276.14,242.32a1.76,1.76,0,0,1-.42,0,1.65,1.65,0,0,1-.36-.16l.18-.48a1,1,0,0,0,.53.16.38.38,0,0,0,.41-.41.34.34,0,0,0-.1-.25.41.41,0,0,0-.28-.09h-.23v-.5h.21a.4.4,0,0,0,.27-.09.36.36,0,0,0,.09-.26c0-.23-.11-.35-.33-.35a1.16,1.16,0,0,0-.51.14l-.18-.46a1.56,1.56,0,0,1,.39-.15,1.4,1.4,0,0,1,.41,0,.89.89,0,0,1,.63.21.81.81,0,0,1,.21.6.63.63,0,0,1-.15.41.8.8,0,0,1-.42.25v-.07a.72.72,0,0,1,.46.23.7.7,0,0,1,.16.48.82.82,0,0,1-.26.64A1,1,0,0,1,276.14,242.32Z" transform="translate(-192.23 -148.64)"/><path class="cls-1" d="M272.2,249.31a1.07,1.07,0,0,1-.9-.35,1.74,1.74,0,0,1-.28-1.11,1.79,1.79,0,0,1,.32-1.13,1.07,1.07,0,0,1,.89-.41,1.69,1.69,0,0,1,.68.14l-.13.47a1.6,1.6,0,0,0-.49-.09.5.5,0,0,0-.46.24,1.6,1.6,0,0,0-.15.79,2.79,2.79,0,0,0,.05.57.55.55,0,0,0,.17.29.54.54,0,0,0,.33.09l.23,0,.23-.06-.28.34v-1.14l.35.19h-.7v-.5H273v1.55a3.45,3.45,0,0,1-.4.11Z" transform="translate(-192.23 -148.64)"/><path class="cls-1" d="M274.07,249.31a1.73,1.73,0,0,1-.42-.05,1.25,1.25,0,0,1-.36-.15l.18-.48a1.11,1.11,0,0,0,.53.16.38.38,0,0,0,.41-.41.34.34,0,0,0-.1-.25A.41.41,0,0,0,274,248h-.23v-.51H274a.36.36,0,0,0,.26-.09.31.31,0,0,0,.1-.26c0-.23-.11-.34-.33-.34a1.13,1.13,0,0,0-.51.13l-.18-.45a1.56,1.56,0,0,1,.39-.15,1.4,1.4,0,0,1,.41-.06.89.89,0,0,1,.63.21.81.81,0,0,1,.21.6.64.64,0,0,1-.15.42.73.73,0,0,1-.42.24v-.06a.72.72,0,0,1,.46.23.67.67,0,0,1,.16.47.84.84,0,0,1-.26.65A1,1,0,0,1,274.07,249.31Z" transform="translate(-192.23 -148.64)"/><path class="cls-1" d="M275.45,249.25v-.47l.71-.82a1.18,1.18,0,0,0,.17-.24,1.07,1.07,0,0,0,.1-.22,1,1,0,0,0,0-.24.45.45,0,0,0-.1-.31.34.34,0,0,0-.27-.11,1,1,0,0,0-.23,0l-.25.12-.2-.47a1.38,1.38,0,0,1,.37-.16,1.89,1.89,0,0,1,.39-.05,1,1,0,0,1,.67.23.9.9,0,0,1,.23.64,1.12,1.12,0,0,1-.05.36,1.78,1.78,0,0,1-.14.36,2.78,2.78,0,0,1-.26.37l-.55.67-.18-.21h1.24v.51Z" transform="translate(-192.23 -148.64)"/><path class="cls-1" d="M272.2,256.3a1.1,1.1,0,0,1-.9-.35,1.78,1.78,0,0,1-.28-1.11,1.82,1.82,0,0,1,.32-1.14,1.09,1.09,0,0,1,.89-.4,1.87,1.87,0,0,1,.68.13l-.13.48a1.38,1.38,0,0,0-.49-.1.51.51,0,0,0-.46.25,1.6,1.6,0,0,0-.15.79,2.61,2.61,0,0,0,.05.56.54.54,0,0,0,.17.3.62.62,0,0,0,.33.08.93.93,0,0,0,.23,0l.23-.05-.28.33v-1.13l.35.18h-.7v-.49H273v1.55a3.34,3.34,0,0,1-.4.1A1.69,1.69,0,0,1,272.2,256.3Z" transform="translate(-192.23 -148.64)"/><path class="cls-1" d="M274.07,256.3a1.73,1.73,0,0,1-.42-.05,1.25,1.25,0,0,1-.36-.15l.18-.49a1,1,0,0,0,.53.16.4.4,0,0,0,.3-.1.45.45,0,0,0,.11-.31.34.34,0,0,0-.1-.25A.47.47,0,0,0,274,255h-.23v-.51H274a.36.36,0,0,0,.26-.09.33.33,0,0,0,.1-.26c0-.23-.11-.35-.33-.35a1.16,1.16,0,0,0-.51.14l-.18-.45a2.14,2.14,0,0,1,.39-.16,1.84,1.84,0,0,1,.41,0,.89.89,0,0,1,.63.21.81.81,0,0,1,.21.6.61.61,0,0,1-.15.41.75.75,0,0,1-.42.25v-.07a.73.73,0,0,1,.46.24.67.67,0,0,1,.16.47.86.86,0,0,1-.26.65A1,1,0,0,1,274.07,256.3Z" transform="translate(-192.23 -148.64)"/><path class="cls-1" d="M276.14,256.3a1.22,1.22,0,0,1-.74-.21l.17-.47a1.41,1.41,0,0,0,.27.12,1,1,0,0,0,.25,0,.44.44,0,0,0,.32-.11.41.41,0,0,0,.11-.31c0-.29-.12-.43-.36-.43a.51.51,0,0,0-.33.13l-.33-.2v-1.5H277v.52h-1.3l.34-.39v1.37l-.09-.2a.59.59,0,0,1,.46-.19.68.68,0,0,1,.54.23,1,1,0,0,1,.2.65.94.94,0,0,1-.26.7A1,1,0,0,1,276.14,256.3Z" transform="translate(-192.23 -148.64)"/><path class="cls-1" d="M272.2,263.29a1.08,1.08,0,0,1-.9-.36,1.74,1.74,0,0,1-.28-1.11,1.81,1.81,0,0,1,.32-1.13,1.06,1.06,0,0,1,.89-.4,1.68,1.68,0,0,1,.68.13l-.13.47a1.6,1.6,0,0,0-.49-.09.49.49,0,0,0-.46.25,1.57,1.57,0,0,0-.15.79,2.68,2.68,0,0,0,.05.56.51.51,0,0,0,.17.29.54.54,0,0,0,.33.09l.23,0a1,1,0,0,0,.23-.06l-.28.34V261.9l.35.19h-.7v-.5H273v1.56a3.34,3.34,0,0,1-.4.1A2.58,2.58,0,0,1,272.2,263.29Z" transform="translate(-192.23 -148.64)"/><path class="cls-1" d="M274.07,263.28a1.76,1.76,0,0,1-.42,0,1.65,1.65,0,0,1-.36-.16l.18-.48a1,1,0,0,0,.53.16.38.38,0,0,0,.41-.41.34.34,0,0,0-.1-.25A.41.41,0,0,0,274,262h-.23v-.5H274a.36.36,0,0,0,.26-.09.33.33,0,0,0,.1-.26c0-.23-.11-.35-.33-.35a1.16,1.16,0,0,0-.51.14l-.18-.46a1.56,1.56,0,0,1,.39-.15,1.4,1.4,0,0,1,.41,0,.89.89,0,0,1,.63.21.81.81,0,0,1,.21.6.63.63,0,0,1-.15.41.8.8,0,0,1-.42.25v-.07a.72.72,0,0,1,.46.23.68.68,0,0,1,.16.48.84.84,0,0,1-.26.64A1,1,0,0,1,274.07,263.28Z" transform="translate(-192.23 -148.64)"/><path class="cls-1" d="M276.44,263.22v-2.57l.21.06-.92,1.68-.26-.24h1.78v.5h-1.91v-.47l1-1.83h.6v2.87Z" transform="translate(-192.23 -148.64)"/><path class="cls-1" d="M273.62,270.27a2.34,2.34,0,0,1-.39,0l-.33-.12.15-.5a1.34,1.34,0,0,0,.56.13.49.49,0,0,0,.32-.09.4.4,0,0,0,.09-.27.3.3,0,0,0,0-.2.44.44,0,0,0-.2-.13l-.21-.08a.88.88,0,0,1-.43-.3.8.8,0,0,1-.15-.5.86.86,0,0,1,.25-.66,1,1,0,0,1,.68-.23,2.05,2.05,0,0,1,.37,0,1.12,1.12,0,0,1,.31.1l-.13.49a.86.86,0,0,0-.25-.07.83.83,0,0,0-.22,0,.43.43,0,0,0-.31.09.33.33,0,0,0-.09.25.29.29,0,0,0,.05.19.35.35,0,0,0,.19.12l.21.08a1.21,1.21,0,0,1,.36.18.61.61,0,0,1,.19.26,1.16,1.16,0,0,1,.06.4.83.83,0,0,1-.26.66A1.13,1.13,0,0,1,273.62,270.27Z" transform="translate(-192.23 -148.64)"/><path class="cls-1" d="M275.05,270.21v-2.87h.69l.9,2.22-.14.15v-2.37h.57v2.87h-.69l-.9-2.22.14-.15v2.37Z" transform="translate(-192.23 -148.64)"/><path class="cls-1" d="M274,277.25a1.61,1.61,0,0,1-.39,0,2.13,2.13,0,0,1-.33-.11l.15-.5a1.34,1.34,0,0,0,.56.13.44.44,0,0,0,.32-.1.36.36,0,0,0,.09-.26.33.33,0,0,0-.05-.21.46.46,0,0,0-.2-.13l-.21-.07a1,1,0,0,1-.43-.31.76.76,0,0,1-.15-.5.85.85,0,0,1,.25-.65,1,1,0,0,1,.68-.24,2.05,2.05,0,0,1,.37,0,1.6,1.6,0,0,1,.31.1l-.13.49-.25-.07-.22,0a.44.44,0,0,0-.31.09.32.32,0,0,0-.09.24.31.31,0,0,0,.05.2.41.41,0,0,0,.19.12l.21.08a1.21,1.21,0,0,1,.36.18.55.55,0,0,1,.19.26,1.07,1.07,0,0,1,.06.39.84.84,0,0,1-.26.67A1.13,1.13,0,0,1,274,277.25Z" transform="translate(-192.23 -148.64)"/><path class="cls-1" d="M275.39,277.2v-2.88h.89a.91.91,0,0,1,.7.24,1,1,0,0,1,.23.73,1,1,0,0,1-.24.71.93.93,0,0,1-.69.24h-.61v-.49h.54a.34.34,0,0,0,.27-.11.54.54,0,0,0,.09-.35.56.56,0,0,0-.09-.36.32.32,0,0,0-.27-.12h-.53l.34-.29v2.68Z" transform="translate(-192.23 -148.64)"/><path class="cls-1" d="M273,284.18v-2.87h1.57v.5h-1.33l.39-.32V284l-.39-.33h1.35v.5Zm.23-1.2v-.5h1.17v.5Z" transform="translate(-192.23 -148.64)"/><path class="cls-1" d="M275.05,284.18v-2.87h.69l.9,2.22-.14.15v-2.37h.57v2.87h-.69l-.9-2.22.14-.15v2.37Z" transform="translate(-192.23 -148.64)"/><path class="cls-1" d="M271.8,291.23a1.73,1.73,0,0,1-.42-.05A1.09,1.09,0,0,1,271,291l.17-.48a1.1,1.1,0,0,0,.53.15.4.4,0,0,0,.3-.1.41.41,0,0,0,.11-.3.32.32,0,0,0-.1-.25.41.41,0,0,0-.28-.09h-.23v-.51h.21a.4.4,0,0,0,.27-.09.34.34,0,0,0,.09-.26c0-.23-.11-.34-.33-.34a1.13,1.13,0,0,0-.51.13l-.18-.45a2.14,2.14,0,0,1,.39-.16,1.84,1.84,0,0,1,.41,0,.89.89,0,0,1,.63.21.81.81,0,0,1,.21.6.64.64,0,0,1-.15.42.79.79,0,0,1-.42.24v-.07a.78.78,0,0,1,.46.24.67.67,0,0,1,.16.47.86.86,0,0,1-.26.65A1,1,0,0,1,271.8,291.23Z" transform="translate(-192.23 -148.64)"/><path class="cls-1" d="M273.68,291.17,273,288.3h.68l.51,2.78h-.13l.5-2.77h.65l-.66,2.87Z" transform="translate(-192.23 -148.64)"/><path class="cls-1" d="M276.14,291.23a1.73,1.73,0,0,1-.42-.05,1.09,1.09,0,0,1-.35-.15l.17-.48a1.13,1.13,0,0,0,.53.15.4.4,0,0,0,.3-.1.41.41,0,0,0,.11-.3.32.32,0,0,0-.1-.25.41.41,0,0,0-.28-.09h-.23v-.51h.21a.38.38,0,0,0,.27-.09.34.34,0,0,0,.09-.26c0-.23-.11-.34-.33-.34a1.13,1.13,0,0,0-.51.13l-.18-.45a2.14,2.14,0,0,1,.39-.16,1.92,1.92,0,0,1,.41,0,.89.89,0,0,1,.63.21.81.81,0,0,1,.21.6.64.64,0,0,1-.15.42.79.79,0,0,1-.42.24v-.07a.78.78,0,0,1,.46.24.67.67,0,0,1,.16.47.86.86,0,0,1-.26.65A1,1,0,0,1,276.14,291.23Z" transform="translate(-192.23 -148.64)"/></svg>