<svg id="Capa_1" data-name="Capa 1" xmlns="http://www.w3.org/2000/svg" viewBox="0 0 56.31 39.72"><defs><style>.cls-1{fill:#cc1517;}.cls-2{fill:#999;}.cls-3{fill:#933;}.cls-4{fill:#73b848;}</style></defs><path class="cls-1" d="M258.23,219.92v-7.45a4.57,4.57,0,0,0-9.14,0v7.45h-1v1.86H259v-1.86Z" transform="translate(-211.17 -207.87)"/><rect class="cls-2" x="44.09" y="13.91" width="1.21" height="3.13"/><rect class="cls-2" x="39.6" y="13.91" width="1.21" height="4.28"/><path class="cls-3" d="M242.62,226l-.78-3.37h.8l.59,3.27-.15,0,.58-3.25h.77l-.78,3.37Z" transform="translate(-211.17 -207.87)"/><path class="cls-3" d="M245.2,226.05a1.74,1.74,0,0,1-.39-.05,1,1,0,0,1-.33-.12l.13-.53a1.25,1.25,0,0,0,.29.1,1,1,0,0,0,.3,0,.34.34,0,0,0,.22-.07.24.24,0,0,0,.08-.2.2.2,0,0,0-.05-.15.35.35,0,0,0-.15-.08l-.21-.07a.89.89,0,0,1-.43-.27.77.77,0,0,1-.14-.47.76.76,0,0,1,.25-.62,1,1,0,0,1,.67-.22,2,2,0,0,1,.36,0,1.33,1.33,0,0,1,.3.11l-.11.5a.9.9,0,0,0-.22-.06l-.27,0a.42.42,0,0,0-.25.06.21.21,0,0,0-.09.19.25.25,0,0,0,.05.15.3.3,0,0,0,.13.09l.16.05a1.36,1.36,0,0,1,.4.18.55.55,0,0,1,.2.23.83.83,0,0,1,.06.34.86.86,0,0,1-.23.65A1.08,1.08,0,0,1,245.2,226.05Z" transform="translate(-211.17 -207.87)"/><path class="cls-3" d="M247.15,226.05a1.9,1.9,0,0,1-.4-.05,1.27,1.27,0,0,1-.33-.12l.14-.53a1.11,1.11,0,0,0,.29.1,1,1,0,0,0,.3,0,.38.38,0,0,0,.22-.07.28.28,0,0,0,.08-.2.25.25,0,0,0,0-.15.53.53,0,0,0-.15-.08l-.22-.07a.81.81,0,0,1-.42-.27.71.71,0,0,1-.14-.47.78.78,0,0,1,.24-.62,1,1,0,0,1,.68-.22,2,2,0,0,1,.36,0,1.33,1.33,0,0,1,.3.11l-.11.5a1,1,0,0,0-.23-.06l-.26,0a.45.45,0,0,0-.26.06.23.23,0,0,0-.08.19.2.2,0,0,0,0,.15.25.25,0,0,0,.13.09l.15.05a1.25,1.25,0,0,1,.4.18.51.51,0,0,1,.21.23,1,1,0,0,1-.18,1A1,1,0,0,1,247.15,226.05Z" transform="translate(-211.17 -207.87)"/><path class="cls-2" d="M260.71,226.05a1.27,1.27,0,0,1-1-.41,2,2,0,0,1-.34-1.3,2.12,2.12,0,0,1,.38-1.34,1.24,1.24,0,0,1,1-.47,1.91,1.91,0,0,1,.8.16l-.15.55a2,2,0,0,0-.57-.11.61.61,0,0,0-.55.29,2,2,0,0,0-.17.93,2.85,2.85,0,0,0,.06.66.52.52,0,0,0,.2.34.61.61,0,0,0,.38.11l.27,0,.27-.06-.32.39v-1.33l.41.22h-.83v-.58h1.08v1.82a3.9,3.9,0,0,1-.46.12A2.45,2.45,0,0,1,260.71,226.05Z" transform="translate(-211.17 -207.87)"/><path class="cls-2" d="M262.16,226v-3.37H263l1.06,2.61-.16.17v-2.78h.66V226h-.8l-1.07-2.61.17-.17V226Z" transform="translate(-211.17 -207.87)"/><path class="cls-2" d="M265.12,226v-3.37h1a1.22,1.22,0,0,1,1,.42,2,2,0,0,1,.33,1.27,2,2,0,0,1-.33,1.25,1.2,1.2,0,0,1-1,.43Zm.76-.23-.4-.37h.62a.47.47,0,0,0,.46-.25,2.59,2.59,0,0,0,0-1.68.47.47,0,0,0-.46-.25h-.62l.4-.36Z" transform="translate(-211.17 -207.87)"/><path class="cls-1" d="M258.23,241.46V234a4.57,4.57,0,0,0-9.14,0v7.45h-1v1.86H259v-1.86Z" transform="translate(-211.17 -207.87)"/><rect class="cls-2" x="44.09" y="35.45" width="1.21" height="3.13"/><rect class="cls-2" x="39.6" y="35.45" width="1.21" height="4.28"/><path class="cls-3" d="M242.62,247.52l-.78-3.37h.8l.59,3.27-.15,0,.58-3.25h.77l-.78,3.37Z" transform="translate(-211.17 -207.87)"/><path class="cls-3" d="M245.2,247.59a1.74,1.74,0,0,1-.39-.05,1,1,0,0,1-.33-.12l.13-.53a1.25,1.25,0,0,0,.29.1,1.54,1.54,0,0,0,.3,0,.34.34,0,0,0,.22-.07.24.24,0,0,0,.08-.2.2.2,0,0,0-.05-.15.27.27,0,0,0-.15-.08l-.21-.07a.89.89,0,0,1-.43-.27.77.77,0,0,1-.14-.47.76.76,0,0,1,.25-.62,1,1,0,0,1,.67-.22,2,2,0,0,1,.36,0,1.33,1.33,0,0,1,.3.11l-.11.5a.9.9,0,0,0-.22-.06l-.27,0a.42.42,0,0,0-.25.06.21.21,0,0,0-.09.19.25.25,0,0,0,.05.15.3.3,0,0,0,.13.09l.16,0a1.36,1.36,0,0,1,.4.18.55.55,0,0,1,.2.23.83.83,0,0,1,.06.34.86.86,0,0,1-.23.65A1.08,1.08,0,0,1,245.2,247.59Z" transform="translate(-211.17 -207.87)"/><path class="cls-3" d="M247.15,247.59a1.9,1.9,0,0,1-.4-.05,1.27,1.27,0,0,1-.33-.12l.14-.53a1.11,1.11,0,0,0,.29.1,1.36,1.36,0,0,0,.3,0,.38.38,0,0,0,.22-.07.28.28,0,0,0,.08-.2.25.25,0,0,0,0-.15.36.36,0,0,0-.15-.08l-.22-.07a.81.81,0,0,1-.42-.27.71.71,0,0,1-.14-.47.78.78,0,0,1,.24-.62,1,1,0,0,1,.68-.22,2,2,0,0,1,.36,0,1.33,1.33,0,0,1,.3.11l-.11.5a1,1,0,0,0-.23-.06l-.26,0a.45.45,0,0,0-.26.06.23.23,0,0,0-.08.19.2.2,0,0,0,0,.15.25.25,0,0,0,.13.09l.15,0a1.25,1.25,0,0,1,.4.18.51.51,0,0,1,.21.23,1,1,0,0,1-.18,1A1,1,0,0,1,247.15,247.59Z" transform="translate(-211.17 -207.87)"/><path class="cls-2" d="M260.71,247.59a1.27,1.27,0,0,1-1-.41,2,2,0,0,1-.34-1.3,2.12,2.12,0,0,1,.38-1.34,1.24,1.24,0,0,1,1-.47,1.91,1.91,0,0,1,.8.16l-.15.55a2,2,0,0,0-.57-.11.61.61,0,0,0-.55.29,2,2,0,0,0-.17.93,2.85,2.85,0,0,0,.06.66.55.55,0,0,0,.2.34.61.61,0,0,0,.38.11,1.24,1.24,0,0,0,.27,0,1.31,1.31,0,0,0,.27-.06l-.32.39V246l.41.22h-.83v-.58h1.08v1.82a3.9,3.9,0,0,1-.46.12A2.45,2.45,0,0,1,260.71,247.59Z" transform="translate(-211.17 -207.87)"/><path class="cls-2" d="M262.16,247.52v-3.37H263l1.06,2.61-.16.17v-2.78h.66v3.37h-.8l-1.07-2.61.17-.17v2.78Z" transform="translate(-211.17 -207.87)"/><path class="cls-2" d="M265.12,247.52v-3.37h1a1.22,1.22,0,0,1,1,.42,2,2,0,0,1,.33,1.27,2,2,0,0,1-.33,1.25,1.2,1.2,0,0,1-1,.43Zm.76-.23-.4-.37h.62a.47.47,0,0,0,.46-.25,2.59,2.59,0,0,0,0-1.68.47.47,0,0,0-.46-.25h-.62l.4-.36Z" transform="translate(-211.17 -207.87)"/><path class="cls-1" d="M228.08,241.46V234a4.57,4.57,0,0,0-9.14,0v7.45h-1v1.86h10.92v-1.86Z" transform="translate(-211.17 -207.87)"/><rect class="cls-2" x="13.94" y="35.45" width="1.21" height="3.13"/><rect class="cls-2" x="9.45" y="35.45" width="1.21" height="4.28"/><path class="cls-3" d="M212.48,247.52l-.78-3.37h.79l.6,3.27-.16,0,.59-3.25h.76l-.77,3.37Z" transform="translate(-211.17 -207.87)"/><path class="cls-3" d="M215.06,247.59a1.9,1.9,0,0,1-.4-.05,1.27,1.27,0,0,1-.33-.12l.14-.53a1.11,1.11,0,0,0,.29.1,1.36,1.36,0,0,0,.3,0,.38.38,0,0,0,.22-.07.28.28,0,0,0,.08-.2.25.25,0,0,0-.05-.15.36.36,0,0,0-.15-.08l-.22-.07a.81.81,0,0,1-.42-.27.71.71,0,0,1-.14-.47.78.78,0,0,1,.24-.62,1,1,0,0,1,.68-.22,2,2,0,0,1,.36,0,1.33,1.33,0,0,1,.3.11l-.11.5a1,1,0,0,0-.23-.06l-.26,0a.45.45,0,0,0-.26.06.23.23,0,0,0-.08.19.24.24,0,0,0,0,.15.34.34,0,0,0,.14.09l.15,0a1.25,1.25,0,0,1,.4.18.51.51,0,0,1,.21.23,1,1,0,0,1-.18,1A1,1,0,0,1,215.06,247.59Z" transform="translate(-211.17 -207.87)"/><path class="cls-3" d="M217,247.59a1.74,1.74,0,0,1-.39-.05,1,1,0,0,1-.33-.12l.13-.53a1.25,1.25,0,0,0,.29.1,1.54,1.54,0,0,0,.3,0,.34.34,0,0,0,.22-.07.24.24,0,0,0,.08-.2.2.2,0,0,0-.05-.15.27.27,0,0,0-.15-.08l-.21-.07a.89.89,0,0,1-.43-.27.77.77,0,0,1-.14-.47.76.76,0,0,1,.25-.62,1,1,0,0,1,.67-.22,2,2,0,0,1,.36,0,1.33,1.33,0,0,1,.3.11l-.11.5a.86.86,0,0,0-.23-.06l-.26,0a.42.42,0,0,0-.25.06.21.21,0,0,0-.09.19.25.25,0,0,0,0,.15.3.3,0,0,0,.13.09l.16,0a1.36,1.36,0,0,1,.4.18.55.55,0,0,1,.2.23.83.83,0,0,1,.06.34.86.86,0,0,1-.23.65A1.08,1.08,0,0,1,217,247.59Z" transform="translate(-211.17 -207.87)"/><path class="cls-2" d="M230.57,247.59a1.28,1.28,0,0,1-1-.41,2.09,2.09,0,0,1-.33-1.3,2.12,2.12,0,0,1,.37-1.34,1.28,1.28,0,0,1,1.05-.47,1.86,1.86,0,0,1,.79.16l-.14.55a2,2,0,0,0-.58-.11.58.58,0,0,0-.54.29,1.86,1.86,0,0,0-.18.93,2.85,2.85,0,0,0,.06.66.6.6,0,0,0,.2.34.65.65,0,0,0,.39.11l.27,0a1.1,1.1,0,0,0,.26-.06l-.32.39V246l.41.22h-.82v-.58h1.07v1.82a3.45,3.45,0,0,1-.46.12A2.35,2.35,0,0,1,230.57,247.59Z" transform="translate(-211.17 -207.87)"/><path class="cls-2" d="M232,247.52v-3.37h.8l1.07,2.61-.17.17v-2.78h.67v3.37h-.81l-1.06-2.61.16-.17v2.78Z" transform="translate(-211.17 -207.87)"/><path class="cls-2" d="M235,247.52v-3.37h1a1.24,1.24,0,0,1,1,.42,2,2,0,0,1,.33,1.27,1.94,1.94,0,0,1-.34,1.25,1.2,1.2,0,0,1-1,.43Zm.75-.23-.39-.37H236a.49.49,0,0,0,.47-.25,2.78,2.78,0,0,0,0-1.68.49.49,0,0,0-.47-.25h-.61l.39-.36Z" transform="translate(-211.17 -207.87)"/><path class="cls-4" d="M227.67,219.88v-7.44a4.57,4.57,0,0,0-9.14,0v7.44h-1v1.86h10.92v-1.86Z" transform="translate(-211.17 -207.87)"/><rect class="cls-2" x="13.53" y="13.87" width="1.21" height="3.13"/><rect class="cls-2" x="9.04" y="13.87" width="1.21" height="4.35"/><path class="cls-3" d="M212,226l-.78-3.37H212l.6,3.27-.16,0,.59-3.25h.76L213,226Z" transform="translate(-211.17 -207.87)"/><path class="cls-3" d="M214.53,226.05a1.9,1.9,0,0,1-.4-.05,1.27,1.27,0,0,1-.33-.12l.14-.53a1.25,1.25,0,0,0,.29.1,1,1,0,0,0,.3,0,.36.36,0,0,0,.22-.07.28.28,0,0,0,.08-.2.25.25,0,0,0-.05-.15.35.35,0,0,0-.15-.08l-.22-.07a.81.81,0,0,1-.42-.27.77.77,0,0,1-.14-.47.78.78,0,0,1,.24-.62,1,1,0,0,1,.68-.22,2,2,0,0,1,.36,0,1.33,1.33,0,0,1,.3.11l-.11.5a.86.86,0,0,0-.23-.06l-.26,0a.48.48,0,0,0-.26.06.23.23,0,0,0-.08.19.2.2,0,0,0,0,.15.25.25,0,0,0,.13.09l.15.05a1.25,1.25,0,0,1,.4.18.51.51,0,0,1,.21.23,1,1,0,0,1-.18,1A1,1,0,0,1,214.53,226.05Z" transform="translate(-211.17 -207.87)"/><path class="cls-3" d="M216.47,226.05a1.74,1.74,0,0,1-.39-.05,1.27,1.27,0,0,1-.33-.12l.13-.53a1.25,1.25,0,0,0,.29.1,1,1,0,0,0,.3,0,.34.34,0,0,0,.22-.07.24.24,0,0,0,.08-.2.2.2,0,0,0-.05-.15.35.35,0,0,0-.15-.08l-.21-.07a.89.89,0,0,1-.43-.27.77.77,0,0,1-.14-.47.79.79,0,0,1,.25-.62,1,1,0,0,1,.67-.22,2,2,0,0,1,.36,0,1.33,1.33,0,0,1,.3.11l-.11.5a.9.9,0,0,0-.22-.06l-.27,0a.44.44,0,0,0-.25.06.21.21,0,0,0-.09.19.25.25,0,0,0,0,.15.3.3,0,0,0,.13.09l.16.05a1.36,1.36,0,0,1,.4.18.49.49,0,0,1,.2.23.83.83,0,0,1,.06.34.82.82,0,0,1-.23.65A1.08,1.08,0,0,1,216.47,226.05Z" transform="translate(-211.17 -207.87)"/><path class="cls-2" d="M230,226.05a1.28,1.28,0,0,1-1-.41,2.09,2.09,0,0,1-.33-1.3A2.12,2.12,0,0,1,229,223a1.28,1.28,0,0,1,1.05-.47,1.86,1.86,0,0,1,.79.16l-.14.55a2,2,0,0,0-.58-.11.58.58,0,0,0-.54.29,1.86,1.86,0,0,0-.18.93,2.85,2.85,0,0,0,.06.66.56.56,0,0,0,.2.34.67.67,0,0,0,.39.11l.27,0a1.1,1.1,0,0,0,.26-.06l-.32.39v-1.33l.41.22h-.82v-.58H231v1.82a3.45,3.45,0,0,1-.46.12A2.28,2.28,0,0,1,230,226.05Z" transform="translate(-211.17 -207.87)"/><path class="cls-2" d="M231.49,226v-3.37h.8l1.07,2.61-.17.17v-2.78h.67V226h-.81L232,223.37l.16-.17V226Z" transform="translate(-211.17 -207.87)"/><path class="cls-2" d="M234.45,226v-3.37h1a1.22,1.22,0,0,1,1,.42,2,2,0,0,1,.33,1.27,2,2,0,0,1-.33,1.25,1.23,1.23,0,0,1-1,.43Zm.75-.23-.39-.37h.61a.49.49,0,0,0,.47-.25,2.78,2.78,0,0,0,0-1.68.49.49,0,0,0-.47-.25h-.61l.39-.36Z" transform="translate(-211.17 -207.87)"/></svg>