<svg id="Capa_1" data-name="Capa 1" xmlns="http://www.w3.org/2000/svg" viewBox="0 0 40.25 40.25"><defs><style>.cls-1{fill:#cc9932;}.cls-2{fill:#fff;}</style></defs><circle class="cls-1" cx="20.13" cy="20.13" r="20.13"/><circle cx="20.13" cy="20.13" r="17.96"/><circle class="cls-2" cx="20.13" cy="10.32" r="2.89"/><circle class="cls-2" cx="27.21" cy="10.32" r="2.89"/><circle class="cls-2" cx="13.04" cy="10.32" r="2.89"/><circle class="cls-2" cx="20.13" cy="29.74" r="2.89"/><circle class="cls-2" cx="27.21" cy="29.74" r="2.89"/><circle class="cls-2" cx="13.04" cy="29.74" r="2.89"/><path class="cls-2" d="M227.49,225.6a1.66,1.66,0,0,1-.46,0,3,3,0,0,1-.39-.13l.18-.59a1.48,1.48,0,0,0,.65.16.52.52,0,0,0,.38-.12.45.45,0,0,0,.11-.31.43.43,0,0,0-.06-.24.55.55,0,0,0-.24-.15l-.24-.09a1,1,0,0,1-.51-.36.89.89,0,0,1-.18-.58,1,1,0,0,1,.3-.77,1.1,1.1,0,0,1,.8-.28,1.91,1.91,0,0,1,.43,0,1.58,1.58,0,0,1,.37.11l-.16.58-.29-.09-.26,0a.5.5,0,0,0-.36.1.36.36,0,0,0-.11.29.39.39,0,0,0,.06.23.49.49,0,0,0,.22.14l.25.09a1.64,1.64,0,0,1,.42.21.87.87,0,0,1,.23.31,1.24,1.24,0,0,1,.07.46,1,1,0,0,1-.31.78A1.29,1.29,0,0,1,227.49,225.6Z" transform="translate(-219.2 -207.6)"/><path class="cls-2" d="M230.41,225.6a1.24,1.24,0,0,1-1-.41,2,2,0,0,1-.34-1.31,2.08,2.08,0,0,1,.37-1.34,1.26,1.26,0,0,1,1-.45,1.79,1.79,0,0,1,.34,0l.29.09-.17.58a.8.8,0,0,0-.2-.07l-.17,0a.6.6,0,0,0-.63.48,2.73,2.73,0,0,0-.07.71,1.74,1.74,0,0,0,.15.85.52.52,0,0,0,.49.25l.2,0a1.53,1.53,0,0,0,.26-.08l.15.57a1.13,1.13,0,0,1-.31.1A1.5,1.5,0,0,1,230.41,225.6Z" transform="translate(-219.2 -207.6)"/><path class="cls-2" d="M231.49,225.53v-3.37h.75v3.37Zm1.59,0-.84-1.56v-.26l.77-1.55h.75l-.95,1.84v-.4l1.08,1.93Z" transform="translate(-219.2 -207.6)"/><path class="cls-2" d="M245.37,225.53v-3.37h.75v3.14l-.47-.37h1.46v.6Z" transform="translate(-219.2 -207.6)"/><path class="cls-2" d="M247.34,226.34l1.21-4.52h.7L248,226.34Z" transform="translate(-219.2 -207.6)"/><path class="cls-2" d="M249.61,225.53v-3.37h1a1.41,1.41,0,0,1,.57.11.92.92,0,0,1,.38.35,1.16,1.16,0,0,1,.14.62,1.26,1.26,0,0,1-.09.51.83.83,0,0,1-.26.32.93.93,0,0,1-.36.14l-.37.07h-.73v-.54h.67a.37.37,0,0,0,.28-.11.55.55,0,0,0,.11-.39.61.61,0,0,0-.11-.41.41.41,0,0,0-.28-.11h-.65l.41-.32v3.13Zm1.54,0-.66-1.47.67-.09.77,1.56Z" transform="translate(-219.2 -207.6)"/><path class="cls-2" d="M236.54,225.53l-.54-3.37h.71l.36,3H237l.41-2.91h.78l.42,2.9h-.05l.36-3h.67l-.54,3.37h-.92l-.4-2.85h.12l-.4,2.85Z" transform="translate(-219.2 -207.6)"/><path class="cls-2" d="M240.6,225.6a1.62,1.62,0,0,1-.46,0,2.23,2.23,0,0,1-.39-.13l.18-.59a1.45,1.45,0,0,0,.65.16.48.48,0,0,0,.37-.12.41.41,0,0,0,.12-.31.36.36,0,0,0-.07-.24.46.46,0,0,0-.23-.15l-.25-.09a1.15,1.15,0,0,1-.51-.36,1,1,0,0,1-.17-.58,1,1,0,0,1,.29-.77,1.12,1.12,0,0,1,.8-.28,1.94,1.94,0,0,1,.44,0,1.37,1.37,0,0,1,.36.11l-.15.58-.29-.09-.26,0a.55.55,0,0,0-.37.1.4.4,0,0,0-.11.29.39.39,0,0,0,.06.23.61.61,0,0,0,.23.14l.24.09a1.37,1.37,0,0,1,.42.21.68.68,0,0,1,.23.31,1.22,1.22,0,0,1,.08.46,1,1,0,0,1-.32.78A1.28,1.28,0,0,1,240.6,225.6Z" transform="translate(-219.2 -207.6)"/><path class="cls-2" d="M227.49,232.84a1.66,1.66,0,0,1-.46-.05,2,2,0,0,1-.39-.13l.18-.59a1.48,1.48,0,0,0,.65.16.52.52,0,0,0,.38-.12.43.43,0,0,0,.11-.31.43.43,0,0,0-.06-.24.55.55,0,0,0-.24-.15l-.24-.09a1,1,0,0,1-.51-.35.94.94,0,0,1-.18-.59,1,1,0,0,1,.3-.77,1.14,1.14,0,0,1,.8-.28,2.74,2.74,0,0,1,.43,0,1.58,1.58,0,0,1,.37.11l-.16.58a1.28,1.28,0,0,0-.29-.08,1.15,1.15,0,0,0-.26,0,.5.5,0,0,0-.36.1.36.36,0,0,0-.11.29.39.39,0,0,0,.06.23.42.42,0,0,0,.22.14l.25.09a1.38,1.38,0,0,1,.42.22.76.76,0,0,1,.23.3,1.24,1.24,0,0,1,.07.46,1,1,0,0,1-.31.79A1.34,1.34,0,0,1,227.49,232.84Z" transform="translate(-219.2 -207.6)"/><path class="cls-2" d="M229.17,232.77V229.4h1a1.22,1.22,0,0,1,1,.43,2,2,0,0,1,.33,1.27,2,2,0,0,1-.34,1.25,1.22,1.22,0,0,1-1,.42Zm.75-.23-.39-.36h.61a.49.49,0,0,0,.47-.25,2.78,2.78,0,0,0,0-1.68.49.49,0,0,0-.47-.25h-.61l.39-.37Z" transform="translate(-219.2 -207.6)"/><path class="cls-2" d="M245.76,232.84a1.24,1.24,0,0,1-1-.4,2.65,2.65,0,0,1,0-2.65,1.4,1.4,0,0,1,1.37-.42,1.58,1.58,0,0,1,.28.08l-.16.58-.2-.07-.17,0a.65.65,0,0,0-.4.12.64.64,0,0,0-.23.37,2.54,2.54,0,0,0-.08.7,1.61,1.61,0,0,0,.16.85.51.51,0,0,0,.48.25.82.82,0,0,0,.21,0,1,1,0,0,0,.26-.08l.15.57a1.13,1.13,0,0,1-.31.1A1.58,1.58,0,0,1,245.76,232.84Z" transform="translate(-219.2 -207.6)"/><path class="cls-2" d="M246.84,232.77V229.4h.88l.69,2.3h-.11l.7-2.3h.84v3.37h-.66v-2.9l.19,0-.72,2.32h-.6l-.73-2.3.19-.09v2.92Z" transform="translate(-219.2 -207.6)"/><path class="cls-2" d="M250.43,232.77V229.4h1a1.2,1.2,0,0,1,1,.43,2,2,0,0,1,.33,1.27,2,2,0,0,1-.33,1.25,1.22,1.22,0,0,1-1,.42Zm.76-.23-.4-.36h.62a.47.47,0,0,0,.46-.25,2.59,2.59,0,0,0,0-1.68.47.47,0,0,0-.46-.25h-.62l.4-.37Z" transform="translate(-219.2 -207.6)"/><path class="cls-2" d="M236,232.77l-.78-3.37h.79l.6,3.27h-.16l.59-3.26h.76l-.77,3.37Z" transform="translate(-219.2 -207.6)"/><path class="cls-2" d="M238.68,232.84a.62.62,0,0,1-.56-.35,2.05,2.05,0,0,1-.2-1,2.09,2.09,0,0,1,.19-1,.61.61,0,0,1,.56-.34.69.69,0,0,1,.44.15.79.79,0,0,1,.28.39l-.14.05v-1.53H240v3.56h-.62l-.06-.5.08,0a.72.72,0,0,1-.27.37A.68.68,0,0,1,238.68,232.84Zm.27-.59a.34.34,0,0,0,.16,0,.42.42,0,0,0,.14-.09v-1.25a.45.45,0,0,0-.14-.1.53.53,0,0,0-.16,0c-.1,0-.17.06-.22.18a2.44,2.44,0,0,0,0,1.16C238.78,232.19,238.85,232.25,239,232.25Z" transform="translate(-219.2 -207.6)"/><path class="cls-2" d="M241.16,232.84a.62.62,0,0,1-.56-.35,2.05,2.05,0,0,1-.2-1,2.09,2.09,0,0,1,.19-1,.61.61,0,0,1,.56-.34.69.69,0,0,1,.44.15.79.79,0,0,1,.28.39l-.14.05v-1.53h.73v3.56h-.62l-.06-.5.08,0a.72.72,0,0,1-.27.37A.68.68,0,0,1,241.16,232.84Zm.27-.59a.34.34,0,0,0,.16,0,.42.42,0,0,0,.14-.09v-1.25a.45.45,0,0,0-.14-.1.53.53,0,0,0-.16,0c-.1,0-.17.06-.22.18a2.44,2.44,0,0,0,0,1.16C241.26,232.19,241.33,232.25,241.43,232.25Z" transform="translate(-219.2 -207.6)"/></svg>