<svg id="Capa_1" data-name="Capa 1" xmlns="http://www.w3.org/2000/svg" viewBox="0 0 78.17 130.11"><defs><style>.cls-1{fill:#293377;}.cls-2{fill:#fdcc68;}.cls-3{fill:#999;}.cls-4{fill:#fff;}</style></defs><rect class="cls-1" y="2.91" width="78.17" height="116.65" rx="7.69"/><polygon points="20.11 0 20.11 6.28 25.99 6.28 25.99 42.52 56.66 42.52 56.66 6.28 56.66 0 20.11 0"/><rect class="cls-2" x="28.63" width="22.62" height="3.14"/><rect class="cls-3" x="17.74" y="6.52" width="42.99" height="42.99"/><rect x="30.19" y="104.35" width="8.89" height="8.89" rx="4.1"/><rect x="21.3" y="104.35" width="8.89" height="8.89" rx="4.1"/><rect x="12.4" y="104.35" width="8.89" height="8.89" rx="4.1"/><rect x="56.87" y="104.35" width="8.89" height="8.89" rx="4.1"/><rect x="47.98" y="104.35" width="8.89" height="8.89" rx="4.1"/><rect x="39.08" y="104.35" width="8.89" height="8.89" rx="4.1"/><rect class="cls-3" x="15.49" y="107.19" width="2.71" height="22.92"/><rect class="cls-3" x="24.53" y="107.19" width="2.71" height="22.92"/><rect class="cls-3" x="33.28" y="107.19" width="2.71" height="22.92"/><rect class="cls-3" x="42.21" y="107.19" width="2.71" height="22.92"/><rect class="cls-3" x="51.26" y="107.19" width="2.71" height="22.92"/><rect class="cls-3" x="60" y="107.19" width="2.71" height="22.92"/><circle class="cls-4" cx="5.61" cy="113.24" r="3.5"/><circle class="cls-4" cx="72.15" cy="113.24" r="3.5"/><circle class="cls-4" cx="5.61" cy="10.02" r="3.5"/><circle class="cls-4" cx="72.15" cy="10.02" r="3.5"/><path class="cls-4" d="M220.6,262.11a1.76,1.76,0,0,1-.58,1.47,2.88,2.88,0,0,1-1.82.46,2.93,2.93,0,0,1-1.87-.52,1.77,1.77,0,0,1-.66-1.47,2.72,2.72,0,0,1,.22-1.11l.77.2a2.7,2.7,0,0,0-.15.81.85.85,0,0,0,.41.77,2.68,2.68,0,0,0,1.3.24,3.68,3.68,0,0,0,.92-.09.76.76,0,0,0,.48-.28.87.87,0,0,0,.15-.54,1.61,1.61,0,0,0,0-.37,2.62,2.62,0,0,0-.09-.38l.55.45h-1.87l.31-.57v1.15h-.81v-1.5h2.55a4.77,4.77,0,0,1,.17.65A3.36,3.36,0,0,1,220.6,262.11Z" transform="translate(-200.24 -162.68)"/><path class="cls-4" d="M220.49,260.08h-4.71V259l3.65-1.49.24.23h-3.89v-.93h4.71v1.13l-3.65,1.49-.24-.23h3.89Z" transform="translate(-200.24 -162.68)"/><path class="cls-4" d="M220.49,255.94h-4.71v-1.4a1.71,1.71,0,0,1,.59-1.45,2.93,2.93,0,0,1,1.78-.46,2.79,2.79,0,0,1,1.75.47,1.7,1.7,0,0,1,.59,1.44Zm-.32-1.06-.51.55v-.86a.68.68,0,0,0-.35-.65,3.73,3.73,0,0,0-2.35,0,.67.67,0,0,0-.35.65v.86l-.51-.55Z" transform="translate(-200.24 -162.68)"/><path class="cls-4" d="M229.19,263.14l-4.71,1.1v-1.12l4.57-.83,0,.22-4.55-.82v-1.07l4.71,1.08Z" transform="translate(-200.24 -162.68)"/><path class="cls-4" d="M229.29,258.52a1.75,1.75,0,0,1-.57,1.42,2.84,2.84,0,0,1-1.84.48,2.88,2.88,0,0,1-1.87-.53,1.74,1.74,0,0,1-.63-1.43,2.39,2.39,0,0,1,0-.48,1.57,1.57,0,0,1,.13-.4l.8.23a1.8,1.8,0,0,0-.09.28,1.2,1.2,0,0,0,0,.24.88.88,0,0,0,.16.55.91.91,0,0,0,.52.33,3.62,3.62,0,0,0,1,.11,2.36,2.36,0,0,0,1.2-.22.74.74,0,0,0,.35-.68,1.68,1.68,0,0,0,0-.29,2.07,2.07,0,0,0-.11-.36l.8-.21a2.72,2.72,0,0,1,.14.43A3.07,3.07,0,0,1,229.29,258.52Z" transform="translate(-200.24 -162.68)"/><path class="cls-4" d="M229.29,255.41a1.75,1.75,0,0,1-.57,1.42,2.84,2.84,0,0,1-1.84.48,2.93,2.93,0,0,1-1.87-.52,1.77,1.77,0,0,1-.63-1.44,2.39,2.39,0,0,1,0-.48,1.57,1.57,0,0,1,.13-.4l.8.23a1.8,1.8,0,0,0-.09.28,1.29,1.29,0,0,0,0,.24.86.86,0,0,0,.16.55.91.91,0,0,0,.52.33,3.62,3.62,0,0,0,1,.11,2.49,2.49,0,0,0,1.2-.21.76.76,0,0,0,.35-.69,1.68,1.68,0,0,0,0-.29,2.07,2.07,0,0,0-.11-.36l.8-.21a2.72,2.72,0,0,1,.14.43A3.07,3.07,0,0,1,229.29,255.41Z" transform="translate(-200.24 -162.68)"/><path class="cls-4" d="M237.89,263.88h-4.71v-1.22l3.21-1v.15l-3.21-1v-1.18h4.71v.92h-4.06l.07-.26,3.25,1v.84l-3.23,1-.11-.26h4.08Z" transform="translate(-200.24 -162.68)"/><path class="cls-4" d="M237.89,258.85h-4.71V257.8h4.71Z" transform="translate(-200.24 -162.68)"/><path class="cls-4" d="M238,256a2.51,2.51,0,0,1-.07.64,3.58,3.58,0,0,1-.19.55l-.82-.25a2.13,2.13,0,0,0,.22-.91.73.73,0,0,0-.16-.53.61.61,0,0,0-.43-.16.55.55,0,0,0-.34.09.66.66,0,0,0-.22.33l-.12.35a1.52,1.52,0,0,1-.5.71,1.31,1.31,0,0,1-.82.24,1.41,1.41,0,0,1-1.07-.41,1.57,1.57,0,0,1-.39-1.12,2.84,2.84,0,0,1,0-.61,1.78,1.78,0,0,1,.16-.51l.8.22a2.73,2.73,0,0,0-.11.4,1.61,1.61,0,0,0,0,.37.71.71,0,0,0,.15.51.52.52,0,0,0,.4.15.61.61,0,0,0,.32-.08.73.73,0,0,0,.2-.32l.13-.34a2,2,0,0,1,.29-.59,1,1,0,0,1,.43-.32,1.74,1.74,0,0,1,.65-.1,1.35,1.35,0,0,1,1.09.44A1.82,1.82,0,0,1,238,256Z" transform="translate(-200.24 -162.68)"/><path class="cls-4" d="M238,252a1.5,1.5,0,0,1-.62,1.3,4,4,0,0,1-3.67,0,1.67,1.67,0,0,1,0-2.6,4,4,0,0,1,3.67,0A1.51,1.51,0,0,1,238,252Zm-.85,0a.49.49,0,0,0-.15-.38.94.94,0,0,0-.51-.2,5.87,5.87,0,0,0-.95-.06,6,6,0,0,0-.95.06.93.93,0,0,0-.5.2.49.49,0,0,0-.15.38.53.53,0,0,0,.15.39,1,1,0,0,0,.5.2,6,6,0,0,0,.95.06,5.87,5.87,0,0,0,.95-.06,1,1,0,0,0,.51-.2A.53.53,0,0,0,237.14,252Z" transform="translate(-200.24 -162.68)"/><path class="cls-4" d="M246.59,263.88h-4.71v-1.22l3.21-1v.15l-3.21-1v-1.18h4.71v.92h-4.06l.07-.26,3.25,1v.84l-3.23,1-.11-.26h4.08Z" transform="translate(-200.24 -162.68)"/><path class="cls-4" d="M246.69,257.27a1.51,1.51,0,0,1-.62,1.3,4,4,0,0,1-3.67,0,1.67,1.67,0,0,1,0-2.6,4,4,0,0,1,3.67,0A1.51,1.51,0,0,1,246.69,257.27Zm-.85,0a.49.49,0,0,0-.15-.38.94.94,0,0,0-.51-.2,5.87,5.87,0,0,0-1-.06,6,6,0,0,0-.95.06.93.93,0,0,0-.5.2.56.56,0,0,0,0,.76.93.93,0,0,0,.5.21,6,6,0,0,0,.95.06,5.87,5.87,0,0,0,1-.06.93.93,0,0,0,.51-.21A.49.49,0,0,0,245.84,257.27Z" transform="translate(-200.24 -162.68)"/><path class="cls-4" d="M246.69,253.86a2.51,2.51,0,0,1-.07.64,2.55,2.55,0,0,1-.19.55l-.82-.25a2.13,2.13,0,0,0,.22-.91.69.69,0,0,0-.16-.52.58.58,0,0,0-.43-.17.49.49,0,0,0-.34.1.67.67,0,0,0-.22.32l-.12.35a1.52,1.52,0,0,1-.5.71,1.31,1.31,0,0,1-.82.25,1.38,1.38,0,0,1-1.07-.42,1.57,1.57,0,0,1-.39-1.12,2.9,2.9,0,0,1,.05-.61,1.78,1.78,0,0,1,.16-.51l.8.22a2.83,2.83,0,0,0-.11.41,1.47,1.47,0,0,0,0,.36.71.71,0,0,0,.15.51.59.59,0,0,0,.72.07.69.69,0,0,0,.2-.31l.13-.35a2.16,2.16,0,0,1,.29-.59,1.13,1.13,0,0,1,.43-.32,1.74,1.74,0,0,1,.65-.1,1.39,1.39,0,0,1,1.09.44A1.82,1.82,0,0,1,246.69,253.86Z" transform="translate(-200.24 -162.68)"/><path class="cls-4" d="M246.59,251.52h-4.71v-1.06h4.71Z" transform="translate(-200.24 -162.68)"/><path class="cls-4" d="M255.39,262.88a2.51,2.51,0,0,1-.07.64,3.58,3.58,0,0,1-.19.55l-.82-.25a2.13,2.13,0,0,0,.22-.91.72.72,0,0,0-.16-.53.57.57,0,0,0-.43-.16.55.55,0,0,0-.34.09.66.66,0,0,0-.22.33l-.12.34a1.5,1.5,0,0,1-.5.72,1.31,1.31,0,0,1-.82.24,1.39,1.39,0,0,1-1.07-.41,1.57,1.57,0,0,1-.39-1.12,2.84,2.84,0,0,1,.05-.61,1.78,1.78,0,0,1,.16-.51l.8.22a2.73,2.73,0,0,0-.11.4,1.55,1.55,0,0,0,0,.37.72.72,0,0,0,.15.51.52.52,0,0,0,.4.15.53.53,0,0,0,.32-.09.64.64,0,0,0,.2-.31l.13-.34a2,2,0,0,1,.29-.59,1,1,0,0,1,.43-.32,1.73,1.73,0,0,1,.65-.11,1.36,1.36,0,0,1,1.09.45A1.82,1.82,0,0,1,255.39,262.88Z" transform="translate(-200.24 -162.68)"/><path class="cls-4" d="M255.39,258.8a1.75,1.75,0,0,1-.57,1.42,2.84,2.84,0,0,1-1.84.48,2.88,2.88,0,0,1-1.87-.53,1.74,1.74,0,0,1-.63-1.43,2.39,2.39,0,0,1,0-.48,1.57,1.57,0,0,1,.13-.4l.8.23a1.52,1.52,0,0,0-.09.28,1.2,1.2,0,0,0,0,.24.88.88,0,0,0,.16.55.91.91,0,0,0,.52.33,3.62,3.62,0,0,0,1,.11,2.36,2.36,0,0,0,1.2-.22.74.74,0,0,0,.35-.68,1.68,1.68,0,0,0,0-.29,3.55,3.55,0,0,0-.11-.36l.8-.21a2.72,2.72,0,0,1,.14.43A3.07,3.07,0,0,1,255.39,258.8Z" transform="translate(-200.24 -162.68)"/><path class="cls-4" d="M255.29,257.29h-4.71v-1.06h4.71Zm0-2.24-2.18,1.18h-.37l-2.16-1.08V254.1l2.57,1.33-.56,0,2.7-1.51Z" transform="translate(-200.24 -162.68)"/><path class="cls-4" d="M264.09,262.14a1.77,1.77,0,0,1-.57,1.43,3.73,3.73,0,0,1-3.71-.05,1.77,1.77,0,0,1-.63-1.43,2.49,2.49,0,0,1,0-.49,1.37,1.37,0,0,1,.13-.39l.8.23a1.31,1.31,0,0,0-.09.28,1.12,1.12,0,0,0,0,.24.9.9,0,0,0,.16.55,1,1,0,0,0,.52.32,3.26,3.26,0,0,0,1,.11,2.49,2.49,0,0,0,1.2-.21.74.74,0,0,0,.35-.68,1.59,1.59,0,0,0,0-.29c0-.11-.06-.23-.11-.37l.8-.21a2.87,2.87,0,0,1,.14.44A3,3,0,0,1,264.09,262.14Z" transform="translate(-200.24 -162.68)"/><path class="cls-4" d="M264.09,259.63a2.51,2.51,0,0,1-.07.64,2.76,2.76,0,0,1-.19.55l-.82-.25a2.13,2.13,0,0,0,.22-.91.73.73,0,0,0-.16-.53.61.61,0,0,0-.43-.16.55.55,0,0,0-.34.09.71.71,0,0,0-.22.33l-.12.35a1.52,1.52,0,0,1-.5.71,1.31,1.31,0,0,1-.82.25,1.38,1.38,0,0,1-1.07-.42,1.57,1.57,0,0,1-.39-1.12,2.84,2.84,0,0,1,.05-.61,1.78,1.78,0,0,1,.16-.51l.8.22a2.52,2.52,0,0,0-.11.41,1.47,1.47,0,0,0,0,.36.71.71,0,0,0,.15.51.52.52,0,0,0,.4.15.53.53,0,0,0,.32-.08.76.76,0,0,0,.2-.31l.13-.35a2.16,2.16,0,0,1,.29-.59A1,1,0,0,1,262,258a1.74,1.74,0,0,1,.65-.1,1.35,1.35,0,0,1,1.09.44A1.82,1.82,0,0,1,264.09,259.63Z" transform="translate(-200.24 -162.68)"/></svg>