<svg id="Capa_1" data-name="Capa 1" xmlns="http://www.w3.org/2000/svg" viewBox="0 0 53.29 53.29"><defs><style>.cls-1{fill:#754595;}.cls-2{fill:#fff;}.cls-3{fill:#cdcccc;}.cls-4{fill:#339a37;}.cls-5{fill:#999;}</style></defs><rect class="cls-1" width="53.29" height="53.29" rx="7.22"/><circle class="cls-2" cx="4.68" cy="4.83" r="3.43"/><circle class="cls-2" cx="48.69" cy="4.83" r="3.43"/><circle class="cls-3" cx="19.33" cy="46.78" r="3.43"/><circle class="cls-3" cx="11.99" cy="46.78" r="3.43"/><circle class="cls-3" cx="4.77" cy="46.78" r="3.43"/><circle class="cls-3" cx="41.13" cy="46.47" r="3.43"/><circle class="cls-3" cx="48.69" cy="46.47" r="3.43"/><circle class="cls-3" cx="33.79" cy="46.47" r="3.43"/><circle class="cls-3" cx="26.79" cy="46.47" r="3.43"/><path class="cls-2" d="M219.6,242.07h-4v-1.23a1.65,1.65,0,0,1,.13-.68,1,1,0,0,1,.42-.46,1.47,1.47,0,0,1,.74-.17,1.38,1.38,0,0,1,.61.12.91.91,0,0,1,.38.31,1.09,1.09,0,0,1,.18.43l.08.45v.87h-.65v-.8a.44.44,0,0,0-.13-.33.59.59,0,0,0-.47-.15.64.64,0,0,0-.49.15.44.44,0,0,0-.13.33v.77l-.39-.48h3.76Zm0-1.85-1.77.8-.11-.81,1.88-.92Z" transform="translate(-212.68 -201.08)"/><path class="cls-2" d="M219.68,237.4a1.51,1.51,0,0,1-.48,1.22,3.16,3.16,0,0,1-3.18,0,1.46,1.46,0,0,1-.55-1.22,2.61,2.61,0,0,1,0-.42,1.51,1.51,0,0,1,.11-.34l.69.2a.75.75,0,0,0-.08.24.88.88,0,0,0,0,.2.8.8,0,0,0,.14.48.91.91,0,0,0,.44.28,3.19,3.19,0,0,0,.85.09,2.1,2.1,0,0,0,1-.18.65.65,0,0,0,.3-.59c0-.07,0-.15,0-.25a1.58,1.58,0,0,0-.1-.31l.69-.18c0,.1.08.23.12.37A2.28,2.28,0,0,1,219.68,237.4Z" transform="translate(-212.68 -201.08)"/><path class="cls-2" d="M227.08,240.58a1.51,1.51,0,0,1-.48,1.22,2.5,2.5,0,0,1-1.59.41,2.43,2.43,0,0,1-1.59-.45,1.46,1.46,0,0,1-.55-1.22,2.61,2.61,0,0,1,0-.42,1.51,1.51,0,0,1,.11-.34l.69.2a.75.75,0,0,0-.08.24.88.88,0,0,0,0,.2.83.83,0,0,0,.14.48.91.91,0,0,0,.44.28,3.19,3.19,0,0,0,.85.09,2.1,2.1,0,0,0,1-.18.65.65,0,0,0,.3-.59c0-.07,0-.15,0-.25a1.58,1.58,0,0,0-.1-.31l.69-.18a3.24,3.24,0,0,1,.12.37A2.28,2.28,0,0,1,227.08,240.58Z" transform="translate(-212.68 -201.08)"/><path class="cls-2" d="M227,239.29h-4v-.91h3.76l-.45.57V237.2H227Z" transform="translate(-212.68 -201.08)"/><path class="cls-2" d="M227,236.64h-4v-.9h4Zm0-1.91-1.87,1h-.32l-1.85-.93v-.9l2.2,1.14-.48,0,2.32-1.29Z" transform="translate(-212.68 -201.08)"/><path class="cls-2" d="M234.4,242.07h-4v-1.2a1.45,1.45,0,0,1,.51-1.23,2.4,2.4,0,0,1,1.52-.4,2.36,2.36,0,0,1,1.5.4,1.48,1.48,0,0,1,.51,1.23Zm-.28-.9-.43.47v-.74a.59.59,0,0,0-.3-.56,2.42,2.42,0,0,0-1-.16,2.38,2.38,0,0,0-1,.16.59.59,0,0,0-.3.56v.74l-.44-.47Z" transform="translate(-212.68 -201.08)"/><path class="cls-2" d="M234.4,238.68h-4v-.9h4Z" transform="translate(-212.68 -201.08)"/><path class="cls-2" d="M234.4,237.07h-4v-1l3.13-1.28.2.2h-3.33v-.8h4v1l-3.13,1.28-.21-.2h3.34Z" transform="translate(-212.68 -201.08)"/><path class="cls-2" d="M241.89,240.55a1.51,1.51,0,0,1-.49,1.26,2.48,2.48,0,0,1-1.57.4,2.52,2.52,0,0,1-1.6-.45,1.5,1.5,0,0,1-.56-1.25,2.49,2.49,0,0,1,.18-1l.67.18a2.13,2.13,0,0,0-.13.69.68.68,0,0,0,.35.65,2.22,2.22,0,0,0,1.11.21,3.28,3.28,0,0,0,.79-.07.64.64,0,0,0,.54-.7,1.73,1.73,0,0,0,0-.32c0-.11-.05-.22-.08-.33l.47.39h-1.6l.26-.49v1h-.69v-1.29h2.18a2.81,2.81,0,0,1,.15.55A3.5,3.5,0,0,1,241.89,240.55Z" transform="translate(-212.68 -201.08)"/><path class="cls-2" d="M241.8,239.11l-4-1V237l4-1v.9l-3.5.66h0l3.5.68Zm-.85-.76h-.66v-1.61H241Z" transform="translate(-212.68 -201.08)"/><path class="cls-2" d="M241.8,235.6h-4v-.91h4Z" transform="translate(-212.68 -201.08)"/><path class="cls-2" d="M241.8,234h-4v-1l3.13-1.28.2.2h-3.33v-.8h4v1l-3.13,1.27-.21-.19h3.34Z" transform="translate(-212.68 -201.08)"/><path class="cls-2" d="M249.28,241.21a2.26,2.26,0,0,1-.06.55,2.36,2.36,0,0,1-.16.47l-.7-.21a1.94,1.94,0,0,0,.19-.78.62.62,0,0,0-.14-.45.51.51,0,0,0-.37-.14.48.48,0,0,0-.29.08.57.57,0,0,0-.19.28l-.11.29a1.36,1.36,0,0,1-.42.62,1.12,1.12,0,0,1-.7.21,1.18,1.18,0,0,1-.92-.36,1.33,1.33,0,0,1-.34-1,3.93,3.93,0,0,1,0-.52,2.06,2.06,0,0,1,.14-.44l.69.19-.1.35a1.55,1.55,0,0,0,0,.31.61.61,0,0,0,.13.44.48.48,0,0,0,.34.13.41.41,0,0,0,.27-.08.6.6,0,0,0,.18-.26l.11-.3a1.55,1.55,0,0,1,.25-.5.85.85,0,0,1,.37-.28,1.44,1.44,0,0,1,.55-.09,1.18,1.18,0,0,1,.94.38A1.57,1.57,0,0,1,249.28,241.21Z" transform="translate(-212.68 -201.08)"/><path class="cls-2" d="M249.2,239.2h-4V238a1.45,1.45,0,0,1,.51-1.23,3.05,3.05,0,0,1,3,0,1.48,1.48,0,0,1,.51,1.23Zm-.28-.9-.43.47V238a.56.56,0,0,0-.3-.55,2.24,2.24,0,0,0-1-.17,2.21,2.21,0,0,0-1,.17.56.56,0,0,0-.3.55v.74l-.44-.47Z" transform="translate(-212.68 -201.08)"/><path class="cls-2" d="M256.69,240.55a1.51,1.51,0,0,1-.49,1.26,2.48,2.48,0,0,1-1.57.4,2.52,2.52,0,0,1-1.6-.45,1.5,1.5,0,0,1-.56-1.25,2.49,2.49,0,0,1,.18-1l.67.18a2.13,2.13,0,0,0-.13.69.68.68,0,0,0,.35.65,2.22,2.22,0,0,0,1.11.21,3.28,3.28,0,0,0,.79-.07.64.64,0,0,0,.54-.7,1.73,1.73,0,0,0,0-.32c0-.11,0-.22-.08-.33l.47.39h-1.6l.26-.49v1h-.69v-1.29h2.18a2.81,2.81,0,0,1,.15.55A3.5,3.5,0,0,1,256.69,240.55Z" transform="translate(-212.68 -201.08)"/><path class="cls-2" d="M256.6,238.82h-4v-1l3.13-1.28.2.2h-3.33V236h4v1l-3.13,1.27-.21-.19h3.34Z" transform="translate(-212.68 -201.08)"/><path class="cls-2" d="M256.6,235.26h-4v-1.2a1.45,1.45,0,0,1,.51-1.23,2.4,2.4,0,0,1,1.52-.4,2.36,2.36,0,0,1,1.5.4,1.48,1.48,0,0,1,.51,1.23Zm-.28-.9-.43.47v-.74a.59.59,0,0,0-.3-.56,2.42,2.42,0,0,0-1-.16,2.38,2.38,0,0,0-1,.16.59.59,0,0,0-.3.56v.74l-.44-.47Z" transform="translate(-212.68 -201.08)"/><path class="cls-2" d="M264,241.44l-4,.94v-1l3.92-.71,0,.19-3.9-.71v-.91l4,.93Z" transform="translate(-212.68 -201.08)"/><path class="cls-2" d="M264,238.78h-2.87l.42-.24v.57h-.63v-1.19H264Zm-3.61,0h-.82v-.87h.82Z" transform="translate(-212.68 -201.08)"/><path class="cls-2" d="M264,237.3h-3.08v-.73l.78-.1-.28.06a.87.87,0,0,1-.42-.33.9.9,0,0,1-.16-.5.67.67,0,0,1,.28-.57,1.31,1.31,0,0,1,.77-.2H264v.88h-2.1a.43.43,0,0,0-.26.06.2.2,0,0,0-.09.18.53.53,0,0,0,.05.2,1.74,1.74,0,0,0,.11.18H264Z" transform="translate(-212.68 -201.08)"/><rect class="cls-4" x="16.68" y="1.52" width="19.94" height="19.94"/><circle class="cls-5" cx="21.88" cy="7.52" r="3.98"/><circle class="cls-5" cx="31.42" cy="7.52" r="3.98"/><path class="cls-2" d="M236.37,220.31a1.28,1.28,0,0,1-.41,1.05,2.09,2.09,0,0,1-1.3.33,2.12,2.12,0,0,1-1.34-.37,1.28,1.28,0,0,1-.47-1,1.83,1.83,0,0,1,.16-.79l.55.14a2,2,0,0,0-.11.57.6.6,0,0,0,.29.55,1.88,1.88,0,0,0,.93.17,2.94,2.94,0,0,0,.66,0,.56.56,0,0,0,.34-.21.61.61,0,0,0,.11-.38,1.24,1.24,0,0,0,0-.27,1.31,1.31,0,0,0-.06-.27l.39.32h-1.33l.22-.4v.82h-.58V219.4h1.82a3.45,3.45,0,0,1,.12.46A2.28,2.28,0,0,1,236.37,220.31Z" transform="translate(-212.68 -201.08)"/><path class="cls-2" d="M236.3,218.86h-3.37v-.8l2.61-1.07.17.16h-2.78v-.66h3.37v.8l-2.61,1.07-.17-.17h2.78Z" transform="translate(-212.68 -201.08)"/><path class="cls-2" d="M236.3,215.9h-3.37v-1a1.22,1.22,0,0,1,.42-1,2,2,0,0,1,1.27-.33,2,2,0,0,1,1.25.33,1.24,1.24,0,0,1,.43,1Zm-.23-.75-.37.39v-.61a.48.48,0,0,0-.25-.47,2.59,2.59,0,0,0-1.68,0,.48.48,0,0,0-.25.47v.61l-.36-.39Z" transform="translate(-212.68 -201.08)"/><path class="cls-2" d="M245.8,219l-3.37.78V219l3.27-.59,0,.15-3.25-.58v-.77l3.37.78Z" transform="translate(-212.68 -201.08)"/><path class="cls-2" d="M245.87,216.4a1.74,1.74,0,0,1-.05.39,1,1,0,0,1-.12.33l-.53-.13a1.25,1.25,0,0,0,.1-.29,1.36,1.36,0,0,0,0-.3.36.36,0,0,0-.07-.22.28.28,0,0,0-.2-.08.25.25,0,0,0-.15.05.27.27,0,0,0-.08.15l-.07.21a.84.84,0,0,1-.27.43.77.77,0,0,1-.47.14.76.76,0,0,1-.62-.25.93.93,0,0,1-.22-.67,2,2,0,0,1,0-.36,1.33,1.33,0,0,1,.11-.3l.5.11a.86.86,0,0,0-.06.23,2,2,0,0,0,0,.26.42.42,0,0,0,.06.25.21.21,0,0,0,.19.09.25.25,0,0,0,.15-.05.25.25,0,0,0,.09-.13l0-.16a1.36,1.36,0,0,1,.18-.4.55.55,0,0,1,.23-.2.83.83,0,0,1,.34-.06.86.86,0,0,1,.65.23A1.08,1.08,0,0,1,245.87,216.4Z" transform="translate(-212.68 -201.08)"/><path class="cls-2" d="M245.87,214.45a1.83,1.83,0,0,1-.05.4,1.27,1.27,0,0,1-.12.33l-.53-.14a1.11,1.11,0,0,0,.1-.29,1.36,1.36,0,0,0,0-.3.38.38,0,0,0-.07-.22.28.28,0,0,0-.2-.08.25.25,0,0,0-.15,0,.36.36,0,0,0-.08.15l-.07.22a.81.81,0,0,1-.27.42.71.71,0,0,1-.47.14.78.78,0,0,1-.62-.24,1,1,0,0,1-.22-.68,2,2,0,0,1,0-.36,1.33,1.33,0,0,1,.11-.3l.5.11a1,1,0,0,0-.06.23,2.11,2.11,0,0,0,0,.26.45.45,0,0,0,.06.26.2.2,0,0,0,.19.08.24.24,0,0,0,.15,0,.34.34,0,0,0,.09-.14l0-.15a1.36,1.36,0,0,1,.18-.4.51.51,0,0,1,.23-.21,1,1,0,0,1,1,.18A1.07,1.07,0,0,1,245.87,214.45Z" transform="translate(-212.68 -201.08)"/></svg>