<svg id="Capa_1" data-name="Capa 1" xmlns="http://www.w3.org/2000/svg" viewBox="0 0 205.73 186.52"><defs><style>.cls-1{fill:#cdcccc;}.cls-2{fill:#e52421;}.cls-3{fill:#fff;}.cls-4{fill:#cb9904;}.cls-5{fill:#333;}.cls-6{fill:#1d1d1b;}</style></defs><rect class="cls-1" x="175.56" y="64.77" width="30.16" height="12.94"/><rect class="cls-2" x="175.56" y="108.81" width="30.16" height="12.94"/><circle class="cls-3" cx="198.78" cy="71.24" r="4.17"/><circle class="cls-3" cx="199.7" cy="115.28" r="3.89"/><circle class="cls-4" cx="93.26" cy="93.26" r="93.26"/><circle cx="94.01" cy="93.26" r="86.23"/><circle class="cls-5" cx="94.01" cy="93.26" r="19.98"/><circle cx="94.01" cy="93.26" r="9.37"/><path class="cls-6" d="M330.68,198.28a2,2,0,0,1-1.68-.66,3.35,3.35,0,0,1-.53-2.08,3.38,3.38,0,0,1,.6-2.14,2,2,0,0,1,1.67-.75,3.23,3.23,0,0,1,1.27.24l-.23.89a3.17,3.17,0,0,0-.92-.17.92.92,0,0,0-.87.47,2.93,2.93,0,0,0-.28,1.48,4.26,4.26,0,0,0,.1,1.06.9.9,0,0,0,.32.54,1,1,0,0,0,.61.17,3.28,3.28,0,0,0,.43,0,2.09,2.09,0,0,0,.43-.11l-.51.63v-2.13l.65.35h-1.32v-.93h1.72V198a4.73,4.73,0,0,1-.74.19A3.65,3.65,0,0,1,330.68,198.28Z" transform="translate(-136.46 -134.47)"/><path class="cls-6" d="M333,198.16v-5.39h1.28l1.71,4.17-.26.28v-4.45h1.06v5.39H335.5L333.8,194l.26-.27v4.45Z" transform="translate(-136.46 -134.47)"/><path class="cls-6" d="M337.73,198.16v-5.39h1.6a1.94,1.94,0,0,1,1.65.68,3.28,3.28,0,0,1,.53,2,3.22,3.22,0,0,1-.53,2,2,2,0,0,1-1.65.68Zm1.21-.37-.63-.58h1a.79.79,0,0,0,.75-.4,4.41,4.41,0,0,0,0-2.69.79.79,0,0,0-.75-.4h-1l.63-.58Z" transform="translate(-136.46 -134.47)"/><path class="cls-6" d="M331.5,262.88l-1.25-5.39h1.28l1,5.23-.25,0,.94-5.2h1.22l-1.24,5.39Z" transform="translate(-136.46 -134.47)"/><path class="cls-6" d="M336,263a3.2,3.2,0,0,1-.73-.08,2.77,2.77,0,0,1-.63-.22l.29-.93a2.59,2.59,0,0,0,1,.25.8.8,0,0,0,.6-.19.67.67,0,0,0,.18-.49.63.63,0,0,0-.1-.39.81.81,0,0,0-.38-.25l-.39-.14A1.79,1.79,0,0,1,335,260a1.77,1.77,0,0,1,.2-2.17,1.78,1.78,0,0,1,1.28-.45,3.73,3.73,0,0,1,.7.06,3,3,0,0,1,.58.18l-.25.92-.47-.13a1.9,1.9,0,0,0-.41,0,.82.82,0,0,0-.59.17.62.62,0,0,0-.17.46.57.57,0,0,0,.1.36.69.69,0,0,0,.35.23l.4.15a2.2,2.2,0,0,1,.67.34,1.15,1.15,0,0,1,.37.48,2,2,0,0,1,.12.74,1.59,1.59,0,0,1-.51,1.26A2.11,2.11,0,0,1,336,263Z" transform="translate(-136.46 -134.47)"/><path class="cls-6" d="M339.57,263a3.26,3.26,0,0,1-.73-.08,3.15,3.15,0,0,1-.63-.22l.29-.93a2.59,2.59,0,0,0,1,.25.79.79,0,0,0,.6-.19.68.68,0,0,0,.19-.49.62.62,0,0,0-.11-.39.77.77,0,0,0-.37-.25l-.4-.14a1.76,1.76,0,0,1-.81-.56,1.5,1.5,0,0,1-.28-.94,1.6,1.6,0,0,1,.47-1.23,1.8,1.8,0,0,1,1.28-.45,3.73,3.73,0,0,1,.7.06,2.62,2.62,0,0,1,.58.18l-.25.92-.46-.13a2,2,0,0,0-.42,0,.79.79,0,0,0-.58.17.59.59,0,0,0-.18.46.64.64,0,0,0,.1.36.77.77,0,0,0,.36.23l.39.15a2.27,2.27,0,0,1,.68.34,1.13,1.13,0,0,1,.36.48,2,2,0,0,1,.12.74,1.62,1.62,0,0,1-.5,1.26A2.16,2.16,0,0,1,339.57,263Z" transform="translate(-136.46 -134.47)"/></svg>