<svg id="Capa_1" data-name="Capa 1" xmlns="http://www.w3.org/2000/svg" viewBox="0 0 210.28 90.68"><defs><style>.cls-1{fill:#991914;}.cls-2{fill:#cdcccc;}.cls-3{fill:#999;}.cls-4{fill:#1d1d1b;}</style></defs><rect class="cls-1" y="44.81" width="47.67" height="30.7"/><rect class="cls-2" x="7.06" y="75.51" width="4.11" height="15.17"/><rect class="cls-2" x="21.44" y="75.51" width="4.11" height="15.17"/><rect class="cls-2" x="36.51" y="75.51" width="4.11" height="15.17"/><rect class="cls-2" x="5.36" y="44.81" width="36.95" height="26.24"/><rect class="cls-3" x="14.29" y="40.17" width="19.1" height="4.64"/><rect class="cls-2" x="9.78" y="37.13" width="28.11" height="3.03"/><rect class="cls-2" x="151.54" y="181.84" width="5.57" height="29.74" rx="2.25" transform="translate(-191.08 -119.47) rotate(-19.53)"/><rect class="cls-3" x="18.3" y="23.21" width="11.07" height="13.92"/><path class="cls-4" d="M142.47,249.09a1.54,1.54,0,0,1-1.26-.5,3.15,3.15,0,0,1,0-3.16,1.51,1.51,0,0,1,1.26-.57,2.44,2.44,0,0,1,.95.19l-.17.67a2.28,2.28,0,0,0-.69-.14.72.72,0,0,0-.66.35,2.29,2.29,0,0,0-.21,1.12,3.25,3.25,0,0,0,.08.79.62.62,0,0,0,.24.41.76.76,0,0,0,.46.12,1.77,1.77,0,0,0,.32,0l.32-.08-.38.47v-1.6l.49.26h-1v-.69h1.29v2.18c-.19.06-.37.11-.56.15A3.29,3.29,0,0,1,142.47,249.09Z" transform="translate(-134.19 -182.39)"/><path class="cls-4" d="M144.21,249V245h1l1.27,3.14-.19.2V245h.79V249h-1l-1.28-3.13.2-.21V249Z" transform="translate(-134.19 -182.39)"/><path class="cls-4" d="M147.76,249V245H149a1.48,1.48,0,0,1,1.24.51,2.5,2.5,0,0,1,.39,1.53,2.44,2.44,0,0,1-.39,1.5A1.48,1.48,0,0,1,149,249Zm.91-.28-.48-.44h.74a.59.59,0,0,0,.56-.29,3.3,3.3,0,0,0,0-2,.59.59,0,0,0-.56-.29h-.74l.48-.44Z" transform="translate(-134.19 -182.39)"/><path class="cls-4" d="M156.6,249l-.93-4.05h1l.72,3.93-.19,0,.7-3.91h.92l-.93,4.05Z" transform="translate(-134.19 -182.39)"/><path class="cls-4" d="M159.7,249.08a2.5,2.5,0,0,1-.47-.05,1.52,1.52,0,0,1-.4-.15l.16-.64a1.51,1.51,0,0,0,.71.17.4.4,0,0,0,.26-.08.3.3,0,0,0,.1-.24.28.28,0,0,0-.06-.18.39.39,0,0,0-.18-.1l-.26-.08a1,1,0,0,1-.38-1.64,1.17,1.17,0,0,1,.81-.25,2.9,2.9,0,0,1,.43,0,1.4,1.4,0,0,1,.36.13l-.13.6-.27-.07-.32,0a.53.53,0,0,0-.31.07.27.27,0,0,0-.1.22.28.28,0,0,0,.06.18.33.33,0,0,0,.16.12l.18.06a1.56,1.56,0,0,1,.48.21.59.59,0,0,1,.25.27,1,1,0,0,1,.07.41,1,1,0,0,1-.28.78A1.27,1.27,0,0,1,159.7,249.08Z" transform="translate(-134.19 -182.39)"/><path class="cls-4" d="M162,249.08a2.59,2.59,0,0,1-.47-.05,1.68,1.68,0,0,1-.4-.15l.17-.64a1.31,1.31,0,0,0,.34.13,1.47,1.47,0,0,0,.36,0,.43.43,0,0,0,.27-.08.32.32,0,0,0,.09-.24.28.28,0,0,0-.06-.18.39.39,0,0,0-.18-.1l-.25-.08a.94.94,0,0,1-.51-.32.88.88,0,0,1-.17-.57,1,1,0,0,1,.29-.75,1.21,1.21,0,0,1,.81-.25,2.81,2.81,0,0,1,.43,0,1.17,1.17,0,0,1,.36.13l-.13.6-.27-.07-.32,0a.51.51,0,0,0-.3.07.25.25,0,0,0-.1.22.35.35,0,0,0,0,.18.33.33,0,0,0,.16.12l.19.06a1.81,1.81,0,0,1,.48.21.57.57,0,0,1,.24.27,1.16,1.16,0,0,1-.21,1.19A1.24,1.24,0,0,1,162,249.08Z" transform="translate(-134.19 -182.39)"/><rect class="cls-1" x="53.66" y="44.81" width="47.67" height="30.7"/><rect class="cls-2" x="60.72" y="75.51" width="4.11" height="15.17"/><rect class="cls-2" x="75.1" y="75.51" width="4.11" height="15.17"/><rect class="cls-2" x="90.17" y="75.51" width="4.11" height="15.17"/><rect class="cls-2" x="59.03" y="44.81" width="36.95" height="26.24"/><rect class="cls-3" x="67.95" y="40.17" width="19.1" height="4.64"/><rect class="cls-2" x="63.44" y="37.13" width="28.11" height="3.03"/><rect class="cls-2" x="205.21" y="181.84" width="5.57" height="29.74" rx="2.25" transform="translate(-187.99 -101.52) rotate(-19.53)"/><rect class="cls-3" x="71.97" y="23.21" width="11.07" height="13.92"/><path class="cls-4" d="M196.13,249.09a1.5,1.5,0,0,1-1.25-.5,2.45,2.45,0,0,1-.4-1.56,2.58,2.58,0,0,1,.44-1.6,1.51,1.51,0,0,1,1.26-.57,2.49,2.49,0,0,1,1,.19l-.18.67a2.17,2.17,0,0,0-.69-.14.72.72,0,0,0-.66.35,2.43,2.43,0,0,0-.2,1.12,3.33,3.33,0,0,0,.07.79.71.71,0,0,0,.24.41.78.78,0,0,0,.46.12,1.72,1.72,0,0,0,.32,0l.32-.08-.38.47v-1.6l.49.26h-1v-.69h1.29v2.18a5.62,5.62,0,0,1-.55.15A3.51,3.51,0,0,1,196.13,249.09Z" transform="translate(-134.19 -182.39)"/><path class="cls-4" d="M197.87,249V245h1l1.28,3.14-.2.2V245h.8V249h-1l-1.28-3.13.2-.21V249Z" transform="translate(-134.19 -182.39)"/><path class="cls-4" d="M201.42,249V245h1.21a1.46,1.46,0,0,1,1.23.51,3.07,3.07,0,0,1,0,3,1.48,1.48,0,0,1-1.23.51Zm.91-.28-.47-.44h.73a.58.58,0,0,0,.56-.29,3.12,3.12,0,0,0,0-2,.58.58,0,0,0-.56-.29h-.73l.47-.44Z" transform="translate(-134.19 -182.39)"/><path class="cls-4" d="M210.27,249l-.94-4.05h1l.71,3.93-.19,0,.71-3.91h.91L211.5,249Z" transform="translate(-134.19 -182.39)"/><path class="cls-4" d="M213.36,249.08a2.59,2.59,0,0,1-.47-.05,1.68,1.68,0,0,1-.4-.15l.17-.64a1.31,1.31,0,0,0,.34.13,1.42,1.42,0,0,0,.36,0,.43.43,0,0,0,.27-.08.32.32,0,0,0,.09-.24.28.28,0,0,0-.06-.18.39.39,0,0,0-.18-.1l-.25-.08a1,1,0,0,1-.52-.32.94.94,0,0,1-.16-.57,1,1,0,0,1,.29-.75,1.21,1.21,0,0,1,.81-.25,2.81,2.81,0,0,1,.43,0,1.28,1.28,0,0,1,.36.13l-.13.6-.27-.07-.32,0a.49.49,0,0,0-.3.07.25.25,0,0,0-.1.22.27.27,0,0,0,.05.18.33.33,0,0,0,.16.12l.19.06a1.81,1.81,0,0,1,.48.21.57.57,0,0,1,.24.27,1.16,1.16,0,0,1-.21,1.19A1.24,1.24,0,0,1,213.36,249.08Z" transform="translate(-134.19 -182.39)"/><path class="cls-4" d="M215.7,249.08a2.61,2.61,0,0,1-.48-.05,1.44,1.44,0,0,1-.39-.15l.16-.64a1.51,1.51,0,0,0,.71.17.4.4,0,0,0,.26-.08.3.3,0,0,0,.1-.24.28.28,0,0,0-.06-.18.39.39,0,0,0-.18-.1l-.26-.08a.85.85,0,0,1-.68-.89,1,1,0,0,1,.29-.75,1.21,1.21,0,0,1,.81-.25,2.94,2.94,0,0,1,.44,0,1.4,1.4,0,0,1,.36.13l-.13.6-.28-.07-.31,0a.53.53,0,0,0-.31.07.25.25,0,0,0-.1.22.28.28,0,0,0,.06.18.29.29,0,0,0,.16.12l.18.06a1.56,1.56,0,0,1,.48.21.59.59,0,0,1,.25.27,1,1,0,0,1,.07.41,1,1,0,0,1-.28.78A1.27,1.27,0,0,1,215.7,249.08Z" transform="translate(-134.19 -182.39)"/><rect class="cls-1" x="108.13" y="44.81" width="47.67" height="30.7"/><rect class="cls-2" x="115.19" y="75.51" width="4.11" height="15.17"/><rect class="cls-2" x="129.57" y="75.51" width="4.11" height="15.17"/><rect class="cls-2" x="144.64" y="75.51" width="4.11" height="15.17"/><rect class="cls-2" x="113.5" y="44.81" width="36.95" height="26.24"/><rect class="cls-3" x="122.42" y="40.17" width="19.1" height="4.64"/><rect class="cls-2" x="117.92" y="37.13" width="28.11" height="3.03"/><rect class="cls-2" x="259.68" y="181.84" width="5.57" height="29.74" rx="2.25" transform="translate(-184.85 -83.31) rotate(-19.53)"/><rect class="cls-3" x="126.44" y="23.21" width="11.07" height="13.92"/><path class="cls-4" d="M250.61,249.09a1.51,1.51,0,0,1-1.26-.5A2.45,2.45,0,0,1,249,247a2.52,2.52,0,0,1,.45-1.6,1.48,1.48,0,0,1,1.25-.57,2.49,2.49,0,0,1,1,.19l-.18.67a2.17,2.17,0,0,0-.69-.14.69.69,0,0,0-.65.35,2.29,2.29,0,0,0-.21,1.12,3.33,3.33,0,0,0,.07.79.71.71,0,0,0,.24.41.78.78,0,0,0,.46.12,1.72,1.72,0,0,0,.32,0l.33-.08-.39.47v-1.6l.49.26h-1v-.69h1.29v2.18a5.62,5.62,0,0,1-.55.15A3.5,3.5,0,0,1,250.61,249.09Z" transform="translate(-134.19 -182.39)"/><path class="cls-4" d="M252.35,249V245h1l1.28,3.14-.2.2V245h.8V249h-1L253,245.87l.19-.21V249Z" transform="translate(-134.19 -182.39)"/><path class="cls-4" d="M255.9,249V245h1.2a1.45,1.45,0,0,1,1.23.51,2.43,2.43,0,0,1,.4,1.53,2.37,2.37,0,0,1-.4,1.5,1.48,1.48,0,0,1-1.23.51Zm.9-.28-.47-.44h.74a.57.57,0,0,0,.55-.29,3.12,3.12,0,0,0,0-2,.57.57,0,0,0-.55-.29h-.74l.47-.44Z" transform="translate(-134.19 -182.39)"/><path class="cls-4" d="M264.74,249,263.8,245h1l.71,3.93-.18,0L266,245h.92L266,249Z" transform="translate(-134.19 -182.39)"/><path class="cls-4" d="M267.84,249.08a2.61,2.61,0,0,1-.48-.05,1.44,1.44,0,0,1-.39-.15l.16-.64a1.31,1.31,0,0,0,.34.13,1.5,1.5,0,0,0,.37,0,.4.4,0,0,0,.26-.08.33.33,0,0,0,.1-.24.28.28,0,0,0-.06-.18.38.38,0,0,0-.19-.1l-.25-.08a.85.85,0,0,1-.68-.89,1,1,0,0,1,.29-.75,1.21,1.21,0,0,1,.81-.25,3,3,0,0,1,.44,0,1.21,1.21,0,0,1,.35.13l-.13.6-.27-.07-.31,0a.53.53,0,0,0-.31.07.25.25,0,0,0-.1.22.35.35,0,0,0,0,.18.33.33,0,0,0,.16.12l.19.06a1.81,1.81,0,0,1,.48.21.52.52,0,0,1,.24.27,1.16,1.16,0,0,1-.21,1.19A1.23,1.23,0,0,1,267.84,249.08Z" transform="translate(-134.19 -182.39)"/><path class="cls-4" d="M270.17,249.08a2.42,2.42,0,0,1-.47-.05,1.52,1.52,0,0,1-.4-.15l.16-.64a1.51,1.51,0,0,0,.71.17.4.4,0,0,0,.26-.08.3.3,0,0,0,.1-.24.28.28,0,0,0-.06-.18.39.39,0,0,0-.18-.1l-.26-.08a1,1,0,0,1-.38-1.64,1.17,1.17,0,0,1,.81-.25,2.9,2.9,0,0,1,.43,0,1.4,1.4,0,0,1,.36.13l-.13.6-.28-.07-.31,0a.53.53,0,0,0-.31.07.27.27,0,0,0-.1.22.28.28,0,0,0,.06.18.33.33,0,0,0,.16.12l.18.06a1.56,1.56,0,0,1,.48.21.59.59,0,0,1,.25.27,1,1,0,0,1,.07.41,1,1,0,0,1-.28.78A1.27,1.27,0,0,1,270.17,249.08Z" transform="translate(-134.19 -182.39)"/><rect class="cls-1" x="162.61" y="44.81" width="47.67" height="30.7"/><rect class="cls-2" x="169.67" y="75.51" width="4.11" height="15.17"/><rect class="cls-2" x="184.04" y="75.51" width="4.11" height="15.17"/><rect class="cls-2" x="199.12" y="75.51" width="4.11" height="15.17"/><rect class="cls-2" x="167.97" y="44.81" width="36.95" height="26.24"/><rect class="cls-3" x="176.89" y="40.17" width="19.1" height="4.64"/><rect class="cls-2" x="172.39" y="37.13" width="28.11" height="3.03"/><rect class="cls-2" x="314.15" y="181.84" width="5.57" height="29.74" rx="2.25" transform="translate(-181.72 -65.09) rotate(-19.53)"/><rect class="cls-3" x="180.91" y="23.21" width="11.07" height="13.92"/><path class="cls-4" d="M305.08,249.09a1.52,1.52,0,0,1-1.26-.5,2.45,2.45,0,0,1-.4-1.56,2.52,2.52,0,0,1,.45-1.6,1.51,1.51,0,0,1,1.26-.57,2.48,2.48,0,0,1,.95.19l-.17.67a2.27,2.27,0,0,0-.7-.14.71.71,0,0,0-.65.35,2.29,2.29,0,0,0-.21,1.12,4,4,0,0,0,.07.79.71.71,0,0,0,.24.41.82.82,0,0,0,.47.12,1.77,1.77,0,0,0,.32,0l.32-.08-.39.47v-1.6l.5.26h-1v-.69h1.29v2.18c-.19.06-.37.11-.56.15A3.5,3.5,0,0,1,305.08,249.09Z" transform="translate(-134.19 -182.39)"/><path class="cls-4" d="M306.82,249V245h1l1.28,3.14-.2.2V245h.8V249h-1l-1.27-3.13.19-.21V249Z" transform="translate(-134.19 -182.39)"/><path class="cls-4" d="M310.37,249V245h1.2a1.45,1.45,0,0,1,1.23.51,2.43,2.43,0,0,1,.4,1.53,2.37,2.37,0,0,1-.4,1.5,1.46,1.46,0,0,1-1.23.51Zm.9-.28-.47-.44h.74a.6.6,0,0,0,.56-.29,3.3,3.3,0,0,0,0-2,.6.6,0,0,0-.56-.29h-.74l.47-.44Z" transform="translate(-134.19 -182.39)"/><path class="cls-4" d="M319.21,249l-.93-4.05h1l.71,3.93-.18,0,.7-3.91h.92l-.93,4.05Z" transform="translate(-134.19 -182.39)"/><path class="cls-4" d="M322.31,249.08a2.61,2.61,0,0,1-.48-.05,1.44,1.44,0,0,1-.39-.15l.16-.64a1.51,1.51,0,0,0,.71.17.4.4,0,0,0,.26-.08.33.33,0,0,0,.1-.24.28.28,0,0,0-.06-.18.39.39,0,0,0-.18-.1l-.26-.08a.85.85,0,0,1-.68-.89,1,1,0,0,1,.29-.75,1.21,1.21,0,0,1,.81-.25,2.94,2.94,0,0,1,.44,0,1.4,1.4,0,0,1,.36.13l-.14.6-.27-.07-.31,0a.53.53,0,0,0-.31.07.25.25,0,0,0-.1.22.28.28,0,0,0,.06.18.29.29,0,0,0,.16.12l.18.06a1.67,1.67,0,0,1,.48.21.59.59,0,0,1,.25.27,1,1,0,0,1,.07.41,1,1,0,0,1-.28.78A1.27,1.27,0,0,1,322.31,249.08Z" transform="translate(-134.19 -182.39)"/><path class="cls-4" d="M324.64,249.08a2.5,2.5,0,0,1-.47-.05,1.68,1.68,0,0,1-.4-.15l.16-.64a1.51,1.51,0,0,0,.71.17.4.4,0,0,0,.26-.08.3.3,0,0,0,.1-.24.28.28,0,0,0-.06-.18.39.39,0,0,0-.18-.1l-.26-.08a1,1,0,0,1-.51-.32,1.07,1.07,0,0,1,.13-1.32,1.21,1.21,0,0,1,.81-.25,2.81,2.81,0,0,1,.43,0,1.4,1.4,0,0,1,.36.13l-.13.6-.27-.07-.32,0a.53.53,0,0,0-.31.07.27.27,0,0,0-.1.22.28.28,0,0,0,.06.18.33.33,0,0,0,.16.12l.19.06a1.81,1.81,0,0,1,.48.21.62.62,0,0,1,.24.27,1,1,0,0,1,.07.41,1,1,0,0,1-.28.78A1.27,1.27,0,0,1,324.64,249.08Z" transform="translate(-134.19 -182.39)"/></svg>